<svg aria-hidden="true" style="position: absolute; width: 0; height: 0; overflow: hidden;" version="1.1" xmlns="http://www.w3.org/2000/svg" xmlns:xlink="http://www.w3.org/1999/xlink">
<defs>
<symbol id="icon-email" viewBox="0 0 15 20">
<path d="M12.5 5h-10c-0.688 0-1.243 0.563-1.243 1.25l-0.007 7.5c0 0.688 0.563 1.25 1.25 1.25h10c0.688 0 1.25-0.563 1.25-1.25v-7.5c0-0.688-0.563-1.25-1.25-1.25zM12.25 7.657l-4.418 2.762c-0.094 0.059-0.209 0.094-0.332 0.094s-0.237-0.035-0.334-0.095l0.003 0.002-4.418-2.762c-0.157-0.094-0.261-0.263-0.261-0.457 0-0.293 0.238-0.531 0.531-0.531 0.109 0 0.21 0.033 0.295 0.089l4.186 2.617 4.188-2.619c0.082-0.055 0.184-0.088 0.293-0.088 0.293 0 0.531 0.238 0.531 0.531 0 0.194-0.104 0.363-0.259 0.456l-0.002 0.001z"></path>
</symbol>
<symbol id="icon-phone" viewBox="0 0 15 20">
<path d="M12.272 11.554l-1.532-0.175c-0.042-0.005-0.090-0.008-0.139-0.008-0.332 0-0.632 0.135-0.85 0.352l-1.109 1.109c-1.72-0.887-3.087-2.254-3.951-3.924l-0.024-0.051 1.117-1.116c0.217-0.217 0.352-0.517 0.352-0.849 0-0.049-0.003-0.098-0.009-0.146l0.001 0.006-0.175-1.52c-0.072-0.604-0.581-1.067-1.199-1.067-0 0-0.001 0-0.001 0h-1.043c-0.682 0-1.248 0.567-1.206 1.248 0.319 5.15 4.438 9.263 9.583 9.583 0.682 0.042 1.248-0.525 1.248-1.207v-1.043c0-0.002 0-0.004 0-0.007 0-0.613-0.462-1.118-1.056-1.187l-0.006-0.001z"></path>
</symbol>
<symbol id="icon-person" viewBox="0 0 20 20">
<path d="M10 10c1.841 0 3.333-1.492 3.333-3.333s-1.492-3.333-3.333-3.333v0c-1.841 0-3.333 1.492-3.333 3.333s1.492 3.333 3.333 3.333v0zM10 11.667c-2.226 0-6.667 1.117-6.667 3.333v0.833c0 0.458 0.374 0.833 0.833 0.833h11.667c0.458 0 0.833-0.376 0.833-0.833v-0.833c0-2.217-4.442-3.333-6.667-3.333z"></path>
</symbol>
<symbol id="icon-frame" viewBox="0 0 20 20">
<path d="M20 1.667l-20 9.375 6.392 1.972 9.858-7.702-7.498 8.43 0.006 0.003-0.008-0.003v4.591l3.584-3.485 4.542 1.402 3.124-14.583z"></path>
</symbol>
</defs>
</svg>
