<svg aria-hidden="true" style="position: absolute; width: 0; height: 0; overflow: hidden;" version="1.1" xmlns="http://www.w3.org/2000/svg" xmlns:xlink="http://www.w3.org/1999/xlink">
<defs>

<symbol id="icon-twitter" viewBox="0 0 20 20">
<path d="M20 3.799c-0.687 0.308-1.485 0.536-2.32 0.643l-0.043 0.004c0.85-0.51 1.488-1.299 1.796-2.237l0.008-0.029c-0.748 0.452-1.62 0.796-2.547 0.984l-0.053 0.009c-0.75-0.799-1.813-1.297-2.992-1.297-2.264 0-4.1 1.836-4.1 4.1v0c0 0.325 0.027 0.638 0.095 0.935-3.418-0.173-6.424-1.799-8.435-4.268l-0.017-0.021c-0.352 0.593-0.56 1.307-0.56 2.069 0 1.415 0.716 2.663 1.805 3.401l0.014 0.009c-0.683-0.018-1.318-0.203-1.873-0.514l0.020 0.011v0.045c0.002 1.978 1.398 3.629 3.258 4.024l0.027 0.005c-0.313 0.086-0.672 0.135-1.043 0.135-0.011 0-0.023-0-0.034-0l0.002 0c-0.019 0-0.042 0.001-0.064 0.001-0.252 0-0.498-0.026-0.735-0.075l0.023 0.004c0.546 1.64 2.046 2.81 3.826 2.856l0.005 0c-1.384 1.090-3.152 1.749-5.075 1.749-0.003 0-0.006 0-0.010 0h0c-0.336 0-0.659-0.015-0.981-0.056 1.766 1.154 3.929 1.84 6.252 1.84 0.013 0 0.026-0 0.040-0h-0.002c7.545 0 11.67-6.25 11.67-11.668 0-0.181-0.006-0.356-0.015-0.53 0.812-0.586 1.494-1.291 2.036-2.099l0.019-0.029z"></path>
</symbol>

<symbol id="icon-facebook" viewBox="0 0 20 20">
<path d="M13.331 3.321h1.825v-3.18c-0.774-0.090-1.67-0.141-2.578-0.141-0.029 0-0.057 0-0.086 0l0.004-0c-2.633 0-4.434 1.656-4.434 4.7v2.8h-2.906v3.555h2.905v8.945h3.561v-8.944h2.787l0.442-3.556h-3.231v-2.45c0.001-1.028 0.277-1.73 1.71-1.73z"></path>
</symbol>

<symbol id="icon-linkedin" viewBox="0 0 20 20">
<path d="M19.995 20h0.005v-7.338c0-3.587-0.773-6.352-4.968-6.352-2.016 0-3.37 1.107-3.922 2.156h-0.059v-1.82h-3.976v13.354h4.143v-6.612c0-1.74 0.33-3.422 2.485-3.422 2.125 0 2.156 1.986 2.156 3.535v6.5h4.138zM0.33 6.647h4.146v13.353h-4.146v-13.353zM2.401 0c-1.325 0-2.4 1.075-2.4 2.4s1.075 2.425 2.4 2.425c1.326 0 2.402-1.1 2.402-2.425s-1.079-2.4-2.404-2.4z"></path>
</symbol>

<symbol id="icon-instagram" viewBox="0 0 20 20">
<path d="M19.98 5.88c-0.046-1.063-0.219-1.794-0.465-2.426-0.265-0.695-0.658-1.287-1.155-1.774l-0.001-0.001c-0.487-0.494-1.078-0.886-1.736-1.14l-0.034-0.011c-0.637-0.246-1.363-0.419-2.425-0.465-1.073-0.050-1.414-0.063-4.126-0.063-2.716 0-3.056 0.013-4.123 0.059-1.063 0.046-1.792 0.219-2.425 0.465-0.695 0.265-1.287 0.658-1.774 1.155l-0.001 0.001c-0.495 0.487-0.887 1.078-1.141 1.736l-0.011 0.034c-0.246 0.638-0.417 1.363-0.465 2.425-0.050 1.071-0.063 1.412-0.063 4.126 0 2.716 0.012 3.056 0.059 4.122 0.046 1.063 0.219 1.794 0.465 2.426 0.254 0.672 0.649 1.274 1.156 1.774 0.5 0.508 1.106 0.902 1.77 1.152 0.638 0.246 1.362 0.419 2.426 0.465 1.066 0.047 1.406 0.059 4.123 0.059 2.715 0 3.055-0.012 4.121-0.059 1.063-0.046 1.794-0.219 2.426-0.465 1.348-0.531 2.395-1.578 2.914-2.892l0.012-0.035c0.246-0.637 0.419-1.362 0.465-2.426 0.047-1.066 0.059-1.406 0.059-4.123 0-2.715-0.004-3.055-0.050-4.121zM18.18 14.045c-0.044 0.977-0.207 1.505-0.345 1.856-0.344 0.875-1.024 1.555-1.876 1.892l-0.022 0.008c-0.351 0.136-0.883 0.3-1.855 0.343-1.055 0.047-1.371 0.059-4.040 0.059s-2.989-0.012-4.040-0.059c-0.978-0.043-1.505-0.206-1.856-0.344-0.451-0.168-0.834-0.423-1.148-0.746l-0.001-0.001c-0.323-0.315-0.577-0.699-0.739-1.127l-0.007-0.021c-0.138-0.351-0.3-0.883-0.344-1.855-0.046-1.055-0.059-1.373-0.059-4.040 0-2.669 0.013-2.989 0.059-4.040 0.044-0.978 0.208-1.505 0.344-1.856 0.16-0.434 0.415-0.827 0.75-1.149 0.325-0.333 0.715-0.586 1.15-0.746 0.35-0.138 0.882-0.3 1.855-0.344 1.055-0.046 1.371-0.059 4.040-0.059 2.672 0 2.988 0.013 4.040 0.059 0.976 0.044 1.504 0.208 1.855 0.344 0.434 0.16 0.829 0.414 1.15 0.746 0.331 0.325 0.585 0.715 0.745 1.15 0.137 0.35 0.301 0.881 0.344 1.855 0.047 1.055 0.059 1.371 0.059 4.040s-0.011 2.981-0.057 4.035z"></path>
<path d="M10.037 4.864c-2.789 0.063-5.025 2.339-5.025 5.138s2.237 5.074 5.020 5.137l0.006 0c2.789-0.063 5.025-2.339 5.025-5.138s-2.237-5.074-5.020-5.137l-0.006-0zM10.037 13.335c-1.841 0-3.334-1.493-3.334-3.334s1.493-3.334 3.334-3.334v0c1.841 0 3.334 1.493 3.334 3.334s-1.493 3.334-3.334 3.334v0zM16.578 4.661c0 0.663-0.537 1.2-1.2 1.2s-1.2-0.537-1.2-1.2v0c0-0.663 0.537-1.2 1.2-1.2s1.2 0.537 1.2 1.2v0z"></path>
</symbol>

</defs>
</svg>
