<svg aria-hidden="true" style="position: absolute; width: 0; height: 0; overflow: hidden;" version="1.1" xmlns="http://www.w3.org/2000/svg" xmlns:xlink="http://www.w3.org/1999/xlink">
<defs>

<symbol id="icon-twitter" viewBox="0 0 20 20">
<path d="M20 3.799c-0.687 0.308-1.485 0.536-2.32 0.643l-0.043 0.004c0.85-0.51 1.488-1.299 1.796-2.237l0.008-0.029c-0.748 0.452-1.62 0.796-2.547 0.984l-0.053 0.009c-0.75-0.799-1.813-1.297-2.992-1.297-2.264 0-4.1 1.836-4.1 4.1v0c0 0.325 0.027 0.638 0.095 0.935-3.418-0.173-6.424-1.799-8.435-4.268l-0.017-0.021c-0.352 0.593-0.56 1.307-0.56 2.069 0 1.415 0.716 2.663 1.805 3.401l0.014 0.009c-0.683-0.018-1.318-0.203-1.873-0.514l0.020 0.011v0.045c0.002 1.978 1.398 3.629 3.258 4.024l0.027 0.005c-0.313 0.086-0.672 0.135-1.043 0.135-0.011 0-0.023-0-0.034-0l0.002 0c-0.019 0-0.042 0.001-0.064 0.001-0.252 0-0.498-0.026-0.735-0.075l0.023 0.004c0.546 1.64 2.046 2.81 3.826 2.856l0.005 0c-1.384 1.090-3.152 1.749-5.075 1.749-0.003 0-0.006 0-0.010 0h0c-0.336 0-0.659-0.015-0.981-0.056 1.766 1.154 3.929 1.84 6.252 1.84 0.013 0 0.026-0 0.040-0h-0.002c7.545 0 11.67-6.25 11.67-11.668 0-0.181-0.006-0.356-0.015-0.53 0.812-0.586 1.494-1.291 2.036-2.099l0.019-0.029z"></path>
</symbol>

<symbol id="icon-facebook" viewBox="0 0 20 20">
<path d="M13.331 3.321h1.825v-3.18c-0.774-0.090-1.67-0.141-2.578-0.141-0.029 0-0.057 0-0.086 0l0.004-0c-2.633 0-4.434 1.656-4.434 4.7v2.8h-2.906v3.555h2.905v8.945h3.561v-8.944h2.787l0.442-3.556h-3.231v-2.45c0.001-1.028 0.277-1.73 1.71-1.73z"></path>
</symbol>

<symbol id="icon-linkedin" viewBox="0 0 20 20">
<path d="M19.995 20h0.005v-7.338c0-3.587-0.773-6.352-4.968-6.352-2.016 0-3.37 1.107-3.922 2.156h-0.059v-1.82h-3.976v13.354h4.143v-6.612c0-1.74 0.33-3.422 2.485-3.422 2.125 0 2.156 1.986 2.156 3.535v6.5h4.138zM0.33 6.647h4.146v13.353h-4.146v-13.353zM2.401 0c-1.325 0-2.4 1.075-2.4 2.4s1.075 2.425 2.4 2.425c1.326 0 2.402-1.1 2.402-2.425s-1.079-2.4-2.404-2.4z"></path>
</symbol>

<symbol id="icon-instagram" viewBox="0 0 20 20">
<path d="M19.98 5.88c-0.046-1.063-0.219-1.794-0.465-2.426-0.265-0.695-0.658-1.287-1.155-1.774l-0.001-0.001c-0.487-0.494-1.078-0.886-1.736-1.14l-0.034-0.011c-0.637-0.246-1.363-0.419-2.425-0.465-1.073-0.050-1.414-0.063-4.126-0.063-2.716 0-3.056 0.013-4.123 0.059-1.063 0.046-1.792 0.219-2.425 0.465-0.695 0.265-1.287 0.658-1.774 1.155l-0.001 0.001c-0.495 0.487-0.887 1.078-1.141 1.736l-0.011 0.034c-0.246 0.638-0.417 1.363-0.465 2.425-0.050 1.071-0.063 1.412-0.063 4.126 0 2.716 0.012 3.056 0.059 4.122 0.046 1.063 0.219 1.794 0.465 2.426 0.254 0.672 0.649 1.274 1.156 1.774 0.5 0.508 1.106 0.902 1.77 1.152 0.638 0.246 1.362 0.419 2.426 0.465 1.066 0.047 1.406 0.059 4.123 0.059 2.715 0 3.055-0.012 4.121-0.059 1.063-0.046 1.794-0.219 2.426-0.465 1.348-0.531 2.395-1.578 2.914-2.892l0.012-0.035c0.246-0.637 0.419-1.362 0.465-2.426 0.047-1.066 0.059-1.406 0.059-4.123 0-2.715-0.004-3.055-0.050-4.121zM18.18 14.045c-0.044 0.977-0.207 1.505-0.345 1.856-0.344 0.875-1.024 1.555-1.876 1.892l-0.022 0.008c-0.351 0.136-0.883 0.3-1.855 0.343-1.055 0.047-1.371 0.059-4.040 0.059s-2.989-0.012-4.040-0.059c-0.978-0.043-1.505-0.206-1.856-0.344-0.451-0.168-0.834-0.423-1.148-0.746l-0.001-0.001c-0.323-0.315-0.577-0.699-0.739-1.127l-0.007-0.021c-0.138-0.351-0.3-0.883-0.344-1.855-0.046-1.055-0.059-1.373-0.059-4.040 0-2.669 0.013-2.989 0.059-4.040 0.044-0.978 0.208-1.505 0.344-1.856 0.16-0.434 0.415-0.827 0.75-1.149 0.325-0.333 0.715-0.586 1.15-0.746 0.35-0.138 0.882-0.3 1.855-0.344 1.055-0.046 1.371-0.059 4.040-0.059 2.672 0 2.988 0.013 4.040 0.059 0.976 0.044 1.504 0.208 1.855 0.344 0.434 0.16 0.829 0.414 1.15 0.746 0.331 0.325 0.585 0.715 0.745 1.15 0.137 0.35 0.301 0.881 0.344 1.855 0.047 1.055 0.059 1.371 0.059 4.040s-0.011 2.981-0.057 4.035z"></path>
<path d="M10.037 4.864c-2.789 0.063-5.025 2.339-5.025 5.138s2.237 5.074 5.020 5.137l0.006 0c2.789-0.063 5.025-2.339 5.025-5.138s-2.237-5.074-5.020-5.137l-0.006-0zM10.037 13.335c-1.841 0-3.334-1.493-3.334-3.334s1.493-3.334 3.334-3.334v0c1.841 0 3.334 1.493 3.334 3.334s-1.493 3.334-3.334 3.334v0zM16.578 4.661c0 0.663-0.537 1.2-1.2 1.2s-1.2-0.537-1.2-1.2v0c0-0.663 0.537-1.2 1.2-1.2s1.2 0.537 1.2 1.2v0z"></path>
</symbol>

<symbol id="icon-tag-line" viewBox="0 0 111 60">
<path d="M57.354 29.403c-0.41-0.528-0.657-1.2-0.657-1.93 0-0.072 0.002-0.143 0.007-0.214l-0.001 0.010v-3.094c0-0.948 0.215-1.669 0.646-2.162s1.17-0.739 2.218-0.737c0.986 0 1.684 0.21 2.098 0.63 0.45 0.536 0.67 1.19 0.619 1.85v0.729h-1.761v-0.737c0.006-0.241-0.011-0.482-0.051-0.721-0.030-0.174-0.121-0.323-0.249-0.428l-0.001-0.001c-0.158-0.106-0.353-0.169-0.562-0.169-0.027 0-0.054 0.001-0.080 0.003l0.004-0c-0.023-0.002-0.050-0.003-0.077-0.003-0.221 0-0.427 0.067-0.598 0.181l0.004-0.002c-0.145 0.117-0.249 0.28-0.29 0.466l-0.001 0.005c-0.045 0.212-0.070 0.456-0.070 0.705 0 0.021 0 0.043 0.001 0.064l-0-0.003v3.755c-0.003 0.042-0.005 0.092-0.005 0.141 0 0.335 0.086 0.649 0.236 0.923l-0.005-0.010c0.091 0.113 0.21 0.201 0.346 0.254l0.006 0.002c0.142 0.055 0.3 0.075 0.455 0.059 0.225 0.016 0.45-0.045 0.624-0.17 0.136-0.113 0.231-0.272 0.262-0.452l0.001-0.005c0.041-0.249 0.060-0.5 0.055-0.752v-0.762h1.762v0.696c0.004 0.054 0.006 0.117 0.006 0.181 0 0.669-0.232 1.285-0.621 1.77l0.004-0.006c-0.404 0.46-1.093 0.689-2.107 0.689-1.014 0-1.78-0.245-2.215-0.755zM64.689 29.435c-0.445-0.482-0.668-1.184-0.668-2.113v-3.255c0-0.919 0.223-1.615 0.668-2.087 0.446-0.471 1.189-0.707 2.233-0.705 1.036 0 1.776 0.236 2.221 0.705 0.446 0.473 0.672 1.168 0.672 2.087v3.255c0 0.919-0.226 1.624-0.678 2.11-0.453 0.484-1.189 0.726-2.215 0.726s-1.784-0.245-2.233-0.723zM67.742 28.654c0.16-0.302 0.233-0.632 0.211-0.963v-3.986c0.002-0.031 0.003-0.068 0.003-0.105 0-0.307-0.078-0.595-0.216-0.847l0.005 0.009c-0.093-0.116-0.214-0.205-0.353-0.258l-0.006-0.002c-0.102-0.040-0.221-0.063-0.345-0.063-0.042 0-0.084 0.003-0.125 0.008l0.005-0.001c-0.035-0.004-0.076-0.007-0.117-0.007-0.125 0-0.245 0.023-0.356 0.066l0.007-0.002c-0.146 0.055-0.268 0.143-0.361 0.257l-0.001 0.001c-0.161 0.295-0.234 0.619-0.211 0.944v4.005c-0.023 0.331 0.050 0.661 0.211 0.963 0.103 0.101 0.229 0.182 0.372 0.239 0.134 0.054 0.29 0.085 0.453 0.085s0.319-0.031 0.461-0.088l-0.008 0.003c0.142-0.057 0.269-0.138 0.372-0.239v-0.019zM71.934 21.371h1.896l1.427 6.005 1.458-6.005h1.846l0.186 8.668h-1.365l-0.146-6.024-1.408 6.024h-1.094l-1.459-6.046-0.135 6.046h-1.379l0.171-8.668zM80.875 21.371h2.955c1.701 0 2.553 0.821 2.553 2.461 0 1.572-0.897 2.357-2.689 2.355h-1.006v3.853h-1.824l0.011-8.669zM83.399 25.076c0.18 0.019 0.363 0.005 0.536-0.043 0.174-0.046 0.332-0.125 0.467-0.231 0.169-0.229 0.271-0.517 0.271-0.828 0-0.053-0.003-0.105-0.009-0.156l0.001 0.006c0.001-0.030 0.002-0.065 0.002-0.1 0-0.244-0.032-0.481-0.093-0.706l0.004 0.019c-0.029-0.092-0.075-0.172-0.136-0.238l0.001 0.001c-0.064-0.071-0.14-0.13-0.226-0.173l-0.004-0.002c-0.212-0.089-0.458-0.141-0.716-0.141-0.035 0-0.069 0.001-0.103 0.003l0.005-0h-0.707v2.591h0.707zM89.013 21.371h1.959l2.010 8.668h-1.7l-0.396-1.998h-1.748l-0.409 1.999h-1.725l2.010-8.669zM90.688 27.036l-0.682-3.639-0.682 3.639h1.364zM94.605 21.371h1.277l2.443 4.945v-4.945h1.515v8.668h-1.215l-2.459-5.161v5.161h-1.564l0.003-8.668zM103.385 26.734l-2.031-5.352h1.711l1.24 3.437 1.164-3.437h1.675l-2.007 5.352v3.304h-1.751v-3.304zM60.169 33.829v0.453h-1.489v3.522h-0.623v-3.522h-1.497v-0.453h3.608zM64.834 37.804h-0.482c-0.004 0-0.008 0-0.012 0-0.045 0-0.088-0.014-0.122-0.038l0.001 0c-0.035-0.022-0.063-0.053-0.080-0.090l-0.001-0.001-0.431-0.944h-2.065l-0.431 0.944c-0.013 0.042-0.035 0.078-0.064 0.107v0c-0.035 0.024-0.078 0.038-0.124 0.038-0.004 0-0.008-0-0.012-0h-0.482l1.825-3.975h0.634l1.846 3.959zM61.814 36.329h1.722l-0.729-1.618c-0.047-0.102-0.093-0.226-0.131-0.355l-0.005-0.020c-0.026 0.075-0.047 0.148-0.069 0.211l-0.066 0.167-0.722 1.615zM67.979 37.414c0.115 0.005 0.229 0.005 0.343 0 0.099-0.009 0.196-0.025 0.293-0.047 0.105-0.022 0.193-0.047 0.278-0.077l-0.016 0.005c0.080-0.029 0.161-0.064 0.244-0.099v-0.894h-0.73c-0.003 0-0.006 0-0.009 0-0.016 0-0.031-0.002-0.046-0.007l0.001 0c-0.017-0.006-0.032-0.014-0.045-0.025l0 0c-0.012-0.008-0.021-0.019-0.028-0.032l-0-0.001c-0.005-0.011-0.009-0.023-0.009-0.036 0-0.002 0-0.003 0-0.005v0-0.305h1.415v1.524c-0.221 0.138-0.478 0.25-0.75 0.32l-0.019 0.004c-0.15 0.037-0.302 0.064-0.456 0.081-0.16 0.016-0.345 0.026-0.532 0.026-0 0-0 0-0 0v0c-0.006 0-0.014 0-0.021 0-0.322 0-0.63-0.055-0.918-0.155l0.020 0.006c-0.281-0.097-0.524-0.238-0.733-0.417l0.003 0.003c-0.196-0.173-0.354-0.382-0.466-0.618l-0.005-0.012c-0.106-0.235-0.167-0.509-0.167-0.798 0-0.009 0-0.019 0-0.028v0.001c-0-0.007-0-0.016-0-0.025 0-0.291 0.060-0.568 0.169-0.819l-0.005 0.013c0.105-0.236 0.266-0.45 0.471-0.63 0.208-0.179 0.456-0.319 0.729-0.413 0.313-0.102 0.645-0.151 0.978-0.148 0.17 0 0.34 0.011 0.507 0.034 0.149 0.021 0.294 0.055 0.434 0.101 0.129 0.042 0.251 0.094 0.364 0.157 0.112 0.062 0.219 0.132 0.318 0.208l-0.175 0.246c-0.015 0.023-0.035 0.041-0.059 0.053l-0.001 0c-0.024 0.013-0.052 0.021-0.082 0.021h-0c-0.042-0.001-0.081-0.013-0.115-0.033l0.001 0.001c-0.073-0.035-0.131-0.066-0.188-0.1l0.010 0.006c-0.069-0.038-0.15-0.074-0.234-0.104l-0.011-0.003c-0.093-0.034-0.205-0.064-0.321-0.086l-0.014-0.002c-0.132-0.022-0.284-0.034-0.438-0.034-0.009 0-0.017 0-0.026 0h0.001c-0.006-0-0.014-0-0.022-0-0.244 0-0.479 0.040-0.698 0.115l0.015-0.005c-0.207 0.072-0.386 0.179-0.537 0.316l0.001-0.001c-0.152 0.143-0.268 0.311-0.341 0.493-0.078 0.197-0.122 0.425-0.122 0.663s0.045 0.466 0.127 0.676l-0.004-0.013c0.080 0.186 0.205 0.357 0.365 0.5 0.15 0.136 0.332 0.243 0.532 0.315 0.233 0.069 0.478 0.095 0.722 0.078zM73.794 37.351h1.993v0.453h-2.601v-3.975h0.624l-0.015 3.522zM77.858 37.804h-0.624v-3.975h0.624v3.975zM80.177 33.847c0.038 0.018 0.070 0.043 0.096 0.073l0 0 2.666 2.997c-0.002-0.021-0.003-0.046-0.003-0.071s0.001-0.050 0.003-0.074l-0 0.003v-2.963h0.543v3.992h-0.314c-0.006 0-0.013 0.001-0.020 0.001-0.041 0-0.081-0.009-0.117-0.024l0.002 0.001c-0.038-0.020-0.071-0.045-0.098-0.075l-0-0-2.663-2.995v3.092h-0.522v-3.976h0.325c0.035 0 0.071 0.006 0.103 0.018zM88.076 33.829v0.437h-2.211v1.313h1.79v0.422h-1.79v1.356h2.21v0.437h-2.853v-3.965h2.853zM22.709 9.277l27.699 6.786v23.78l-27.699-6.782v-23.786zM20.933 7.25v26.966l31.248 7.659v-26.963l-31.248-7.662z"></path>
<path d="M37.68 54.393l-31.251-7.665v-26.964l31.251 7.661v26.968z"></path>
<path d="M21.45 8.972l27.338 6.701-11.625 10.035-27.342-6.705 11.629-10.031zM20.933 7.25l-14.504 12.514 31.251 7.662 14.501-12.514-31.248-7.662zM39.439 52.875l12.741-10.997-12.742-3.125v14.124z"></path>
</symbol>

<symbol id="icon-brand" viewBox="0 0 111 60">
<path d="M28.706 47.543c0.263 0.294 0.403 0.66 0.396 1.037 0.013 0.245-0.035 0.491-0.141 0.718-0.107 0.226-0.268 0.429-0.473 0.591-0.448 0.303-1.001 0.484-1.595 0.484-0.066 0-0.131-0.002-0.196-0.007l0.009 0h-3.134v-6.57h3.070c0.054-0.004 0.117-0.006 0.181-0.006 0.564 0 1.090 0.165 1.531 0.449l-0.011-0.007c0.197 0.15 0.355 0.339 0.459 0.552 0.103 0.214 0.15 0.446 0.136 0.678 0.018 0.362-0.108 0.718-0.357 1.004-0.242 0.259-0.562 0.443-0.922 0.513l-0.011 0.002c0.416 0.069 0.791 0.268 1.059 0.561zM25.030 46.55h1.312c0.298 0.020 0.594-0.057 0.834-0.217 0.096-0.077 0.172-0.175 0.223-0.287l0.002-0.005c0.038-0.084 0.060-0.182 0.060-0.285 0-0.023-0.001-0.046-0.003-0.069l0 0.003c0.001-0.016 0.002-0.036 0.002-0.055 0-0.106-0.022-0.207-0.063-0.298l0.002 0.005c-0.052-0.117-0.126-0.215-0.217-0.293l-0.001-0.001c-0.212-0.141-0.472-0.225-0.752-0.225-0.038 0-0.075 0.002-0.112 0.004l0.005-0h-1.292v1.723zM27.304 49.070c0.102-0.080 0.184-0.18 0.24-0.296l0.002-0.005c0.044-0.092 0.070-0.201 0.070-0.316 0-0.018-0.001-0.036-0.002-0.053l0 0.002c0.001-0.014 0.001-0.030 0.001-0.047 0-0.118-0.027-0.229-0.075-0.329l0.002 0.005c-0.059-0.122-0.143-0.223-0.244-0.302l-0.002-0.001c-0.226-0.151-0.505-0.24-0.804-0.24-0.031 0-0.061 0.001-0.092 0.003l0.004-0h-1.376v1.807h1.394c0.314 0.016 0.625-0.064 0.881-0.228zM34.981 50.368l-1.708-2.568h-0.643v2.567h-1.468v-6.57h2.78c0.060-0.004 0.13-0.007 0.2-0.007 0.652 0 1.256 0.212 1.744 0.571l-0.008-0.006c0.389 0.357 0.624 0.827 0.661 1.325 0.039 0.498-0.123 0.992-0.454 1.393-0.343 0.354-0.811 0.59-1.326 0.669l1.818 2.625h-1.596zM32.631 46.904h1.201c0.835 0 1.251-0.332 1.251-0.995 0.001-0.016 0.002-0.035 0.002-0.054 0-0.124-0.025-0.242-0.071-0.35l0.002 0.006c-0.057-0.134-0.138-0.247-0.238-0.34l-0.001-0.001c-0.229-0.169-0.516-0.271-0.828-0.271-0.041 0-0.082 0.002-0.123 0.005l0.005-0h-1.216l0.015 1.999zM43.010 49.045h-2.928l-0.518 1.322h-1.54l2.689-6.496h1.665l2.678 6.496h-1.541l-0.506-1.322zM42.618 48.050l-1.070-2.774-1.069 2.773h2.14zM53.060 50.368h-1.457l-3.27-4.468v4.468h-1.455v-6.571h1.455l3.269 4.494v-4.494h1.458v6.57zM61.382 48.794c-0.318 0.507-0.767 0.905-1.3 1.152l-0.019 0.008c-0.634 0.289-1.339 0.431-2.050 0.414h-2.596v-6.57h2.596c0.036-0.001 0.078-0.002 0.121-0.002 0.698 0 1.361 0.149 1.959 0.418l-0.030-0.012c0.558 0.254 1.018 0.654 1.319 1.146 0.3 0.535 0.456 1.125 0.456 1.724-0.002 0.634-0.171 1.227-0.465 1.74l0.009-0.017zM59.714 48.638c0.395-0.405 0.64-0.958 0.645-1.568v-0.001c-0.005-0.611-0.25-1.163-0.645-1.568l0 0c-0.454-0.352-1.031-0.564-1.658-0.564-0.059 0-0.118 0.002-0.176 0.006l0.008-0h-1.012v4.254h1.012c0.051 0.003 0.11 0.005 0.169 0.005 0.626 0 1.203-0.212 1.663-0.568l-0.006 0.005zM43.923 7.25s18.821 6.396 18.422 15.654v15.658s-18.808-6.401-18.417-15.658l-0.006-15.654zM79.113 34.896c3.554-2.203 7.666-3.568 11.958-3.967v-4.902c-4.946 1.715-9.14 4.827-11.958 8.868z"></path>
<path d="M76.978 36.373c2.908-5.275 7.953-9.344 14.094-11.372v-14.124s-26.805 9.113-26.238 22.295v22.292s1.195-0.407 3.074-1.172c0-0.712 0-1.431 0.086-2.154 0.555-6.12 3.786-11.791 8.985-15.766z"></path>
<path d="M74.428 44.654c0.158-1.686 0.49-3.236 0.981-4.712l-0.043 0.148c-3.238 3.433-5.197 7.693-5.606 12.181-0.039 0.423-0.060 0.846-0.071 1.284 2.246-0.965 3.94-1.784 5.6-2.658l-0.444 0.213c-0.321-1.369-0.505-2.941-0.505-4.556 0-0.669 0.032-1.33 0.093-1.983l-0.006 0.083zM75.494 44.734c-0.052 0.541-0.082 1.17-0.082 1.806 0 1.43 0.151 2.825 0.438 4.169l-0.023-0.13c7.323-3.945 15.552-10.039 15.235-17.406v-0.643c-5.232 0.528-10.127 2.587-13.934 5.862-0.839 1.854-1.42 4.005-1.627 6.264l-0.006 0.079z"></path>
</symbol>

<symbol id="icon-foster-peters" viewBox="0 0 111 60">
<path d="M25.798 23.055h-0.003c-2.555 0-4.629 1.869-4.629 4.172v0.003c0 2.304 2.073 4.172 4.629 4.172h0.003c2.556 0 4.629-1.867 4.629-4.172v-0.003c0-2.304-2.072-4.172-4.629-4.172zM59.958 21.721c-0.006-3.201-1.42-6.268-3.93-8.533-2.51-2.263-5.912-3.538-9.464-3.545-3.551 0.005-6.955 1.28-9.466 3.544s-3.926 5.332-3.932 8.534v17.651s26.789-2.689 26.791-17.648v-0.003zM11.786 45.165c0.006 2.227 0.99 4.362 2.736 5.937s4.114 2.463 6.584 2.47c2.47-0.006 4.836-0.894 6.583-2.469s2.73-3.707 2.738-5.936v-12.28s-18.641 1.872-18.641 12.277zM21.106 47.366c-0.482 0-0.955-0.129-1.356-0.371-0.392-0.234-0.7-0.571-0.893-0.974l-0.006-0.014c-0.117-0.247-0.186-0.536-0.186-0.842 0-0.152 0.017-0.3 0.049-0.442l-0.003 0.013c0.105-0.451 0.342-0.837 0.666-1.125l0.002-0.002c0.34-0.303 0.765-0.516 1.235-0.6l0.015-0.002c0.474-0.086 0.964-0.042 1.41 0.125 0.446 0.166 0.827 0.449 1.095 0.81 0.268 0.362 0.411 0.788 0.411 1.223 0.001 0.289-0.061 0.578-0.183 0.845s-0.302 0.511-0.528 0.717c-0.223 0.201-0.487 0.364-0.776 0.473l-0.017 0.006c-0.277 0.107-0.598 0.168-0.933 0.168-0.001 0-0.002 0-0.003 0h0v-0.009zM38.152 43.409v4.571h-0.942v-4.571h0.942zM39.974 45.361v0.735h-2.079v-0.735h2.079zM40.193 43.409v0.737h-2.296v-0.737h2.297zM44.493 45.587v0.216c0 0.348-0.047 0.66-0.141 0.935-0.090 0.273-0.226 0.508-0.401 0.71l0.002-0.003c-0.171 0.193-0.377 0.34-0.615 0.443-0.224 0.097-0.486 0.153-0.76 0.153-0.010 0-0.020-0-0.030-0h0.002c-0.286 0-0.549-0.051-0.788-0.153-0.242-0.106-0.447-0.256-0.614-0.441l-0.001-0.002c-0.174-0.199-0.312-0.434-0.401-0.693l-0.004-0.015c-0.090-0.267-0.142-0.574-0.142-0.894 0-0.015 0-0.029 0-0.044v0.002-0.216c0-0.349 0.047-0.661 0.141-0.935 0.090-0.272 0.226-0.508 0.401-0.709l-0.002 0.003c0.174-0.195 0.378-0.343 0.615-0.446 0.239-0.103 0.501-0.154 0.789-0.154 0.289 0 0.551 0.051 0.788 0.154 0.239 0.103 0.444 0.251 0.615 0.446 0.174 0.195 0.308 0.43 0.402 0.707 0.096 0.273 0.145 0.585 0.145 0.934zM43.542 45.804v-0.223c0-0.242-0.021-0.455-0.065-0.64-0.039-0.176-0.107-0.332-0.198-0.47l0.003 0.005c-0.079-0.119-0.185-0.215-0.309-0.281l-0.005-0.002c-0.118-0.061-0.257-0.097-0.405-0.097-0.006 0-0.013 0-0.019 0h0.001c-0.16 0-0.3 0.032-0.424 0.096-0.127 0.068-0.232 0.164-0.309 0.28l-0.002 0.003c-0.086 0.133-0.153 0.289-0.19 0.456l-0.002 0.009c-0.042 0.18-0.066 0.387-0.066 0.6 0 0.014 0 0.028 0 0.042v-0.002 0.223c0 0.241 0.021 0.454 0.065 0.641 0.044 0.184 0.109 0.34 0.195 0.468 0.086 0.125 0.191 0.221 0.314 0.285s0.265 0.098 0.423 0.098c0.16 0 0.3-0.032 0.424-0.096 0.128-0.069 0.232-0.166 0.309-0.283l0.002-0.003c0.084-0.129 0.148-0.284 0.192-0.468 0.042-0.181 0.066-0.389 0.066-0.602 0-0.014-0-0.027-0-0.040v0.002zM47.55 46.783c0-0.003 0-0.007 0-0.010 0-0.075-0.014-0.147-0.039-0.214l0.001 0.004c-0.028-0.074-0.073-0.135-0.131-0.182l-0.001-0.001c-0.079-0.065-0.169-0.12-0.266-0.163l-0.007-0.003c-0.122-0.057-0.273-0.114-0.428-0.162l-0.027-0.007c-0.241-0.078-0.436-0.154-0.625-0.241l0.036 0.015c-0.187-0.084-0.348-0.182-0.495-0.296l0.006 0.004c-0.134-0.108-0.246-0.238-0.329-0.387l-0.003-0.007c-0.076-0.144-0.12-0.315-0.12-0.496 0-0.008 0-0.015 0-0.023v0.001c-0-0.004-0-0.009-0-0.014 0-0.184 0.046-0.357 0.128-0.509l-0.003 0.006c0.084-0.157 0.201-0.291 0.351-0.402 0.15-0.114 0.329-0.2 0.534-0.261 0.208-0.060 0.434-0.091 0.681-0.091 0.336 0 0.631 0.061 0.882 0.182 0.251 0.122 0.446 0.288 0.584 0.499 0.139 0.211 0.21 0.453 0.21 0.725h-0.935c0-0.005 0-0.010 0-0.016 0-0.123-0.031-0.238-0.087-0.339l0.002 0.004c-0.057-0.105-0.143-0.188-0.247-0.241l-0.003-0.002c-0.113-0.056-0.247-0.088-0.388-0.088-0.012 0-0.023 0-0.035 0.001l0.002-0c-0.009-0-0.020-0.001-0.031-0.001-0.136 0-0.265 0.028-0.382 0.078l0.006-0.002c-0.102 0.042-0.186 0.11-0.245 0.196l-0.001 0.002c-0.050 0.075-0.080 0.168-0.080 0.268 0 0.003 0 0.006 0 0.009v-0c0 0.077 0.018 0.148 0.056 0.21 0.048 0.070 0.106 0.129 0.174 0.174l0.002 0.001c0.077 0.055 0.171 0.106 0.285 0.154s0.244 0.095 0.392 0.141c0.25 0.075 0.468 0.16 0.657 0.254 0.19 0.094 0.349 0.199 0.477 0.317 0.129 0.118 0.224 0.25 0.289 0.399 0.064 0.149 0.096 0.317 0.096 0.506 0.001 0.013 0.001 0.029 0.001 0.044 0 0.364-0.177 0.686-0.45 0.886l-0.003 0.002c-0.146 0.108-0.321 0.191-0.524 0.248-0.204 0.057-0.43 0.086-0.681 0.086-0.225 0-0.449-0.030-0.669-0.089-0.228-0.063-0.428-0.156-0.607-0.278l0.007 0.005c-0.176-0.121-0.319-0.276-0.423-0.457l-0.004-0.007c-0.107-0.189-0.16-0.411-0.16-0.669h0.945c0 0.142 0.021 0.263 0.065 0.361 0.042 0.096 0.105 0.176 0.184 0.237l0.001 0.001c0.082 0.060 0.179 0.106 0.284 0.131l0.005 0.001c0.112 0.028 0.236 0.041 0.37 0.041 0.010 0 0.023 0.001 0.035 0.001 0.132 0 0.258-0.025 0.373-0.072l-0.007 0.002c0.185-0.075 0.314-0.253 0.314-0.461 0-0.002 0-0.005-0-0.007v0zM51.176 43.409v4.571h-0.939v-4.571h0.939zM52.583 43.409v0.737h-3.729v-0.737h3.729zM56.186 47.245v0.735h-2.432v-0.735h2.432zM54.061 43.409v4.571h-0.943v-4.571h0.943zM55.869 45.27v0.716h-2.116v-0.716h2.116zM56.182 43.409v0.737h-2.43v-0.737h2.43zM56.735 43.409h1.704c0.35 0 0.65 0.052 0.901 0.156 0.254 0.105 0.448 0.26 0.584 0.465s0.204 0.457 0.204 0.756c0 0.245-0.041 0.455-0.125 0.631-0.083 0.175-0.201 0.321-0.346 0.434l-0.003 0.002c-0.15 0.115-0.324 0.209-0.511 0.273l-0.013 0.004-0.298 0.157h-1.482l-0.006-0.735h1.101c0.009 0 0.020 0.001 0.031 0.001 0.139 0 0.269-0.033 0.385-0.091l-0.005 0.002c0.106-0.056 0.19-0.14 0.244-0.242l0.002-0.003c0.053-0.101 0.085-0.22 0.085-0.347 0-0.006-0-0.012-0-0.018v0.001c0-0.006 0-0.013 0-0.021 0-0.13-0.030-0.254-0.084-0.364l0.002 0.005c-0.055-0.107-0.141-0.191-0.245-0.243l-0.003-0.001c-0.114-0.054-0.247-0.086-0.388-0.086-0.010 0-0.021 0-0.031 0.001l0.002-0h-0.763v3.834h-0.941v-4.571zM59.29 47.98l-1.041-2.038 0.994-0.006 1.055 2v0.043h-1.007zM64.234 46.351h-1.165v-0.735h1.165c0.011 0 0.024 0.001 0.037 0.001 0.146 0 0.284-0.033 0.408-0.091l-0.006 0.002c0.108-0.056 0.193-0.143 0.246-0.249l0.001-0.003c0.049-0.109 0.078-0.236 0.078-0.37s-0.029-0.261-0.080-0.376l0.002 0.006c-0.054-0.119-0.139-0.215-0.245-0.281l-0.003-0.002c-0.116-0.068-0.256-0.108-0.405-0.108-0.012 0-0.024 0-0.036 0.001l0.002-0h-0.839v3.834h-0.941v-4.571h1.779c0.359 0 0.664 0.064 0.921 0.195 0.257 0.128 0.453 0.304 0.589 0.53 0.136 0.225 0.204 0.484 0.204 0.775 0 0.296-0.067 0.551-0.204 0.766s-0.332 0.383-0.589 0.499c-0.257 0.118-0.562 0.176-0.921 0.176zM69.664 47.245v0.735h-2.432v-0.735h2.432zM67.54 43.409v4.571h-0.943v-4.571h0.943zM69.347 45.27v0.716h-2.115v-0.716h2.116zM69.661 43.409v0.737h-2.429v-0.737h2.429zM72.32 43.409v4.571h-0.939v-4.571h0.939zM73.726 43.409v0.737h-3.729v-0.737h3.729zM77.329 47.245v0.735h-2.432v-0.735h2.432zM75.205 43.409v4.571h-0.942v-4.571h0.942zM77.012 45.27v0.716h-2.115v-0.716h2.115zM77.326 43.409v0.737h-2.429v-0.737h2.429zM77.879 43.409h1.704c0.35 0 0.65 0.052 0.902 0.156 0.253 0.105 0.448 0.26 0.584 0.465 0.135 0.205 0.204 0.457 0.204 0.756 0 0.245-0.043 0.455-0.125 0.631s-0.201 0.321-0.346 0.434l-0.003 0.002c-0.15 0.115-0.324 0.209-0.512 0.273l-0.013 0.004-0.298 0.157h-1.482l-0.006-0.735h1.103c0.009 0 0.019 0.001 0.030 0.001 0.138 0 0.269-0.033 0.385-0.091l-0.005 0.002c0.106-0.056 0.19-0.14 0.244-0.242l0.002-0.003c0.054-0.101 0.086-0.222 0.086-0.35 0-0.005-0-0.010-0-0.016v0.001c0-0.006 0-0.012 0-0.019 0-0.131-0.031-0.255-0.085-0.365l0.002 0.005c-0.055-0.106-0.14-0.191-0.244-0.243l-0.003-0.001c-0.114-0.054-0.247-0.086-0.388-0.086-0.010 0-0.021 0-0.031 0.001l0.002-0h-0.763v3.834h-0.942v-4.571zM80.434 47.98l-1.043-2.038 0.995-0.006 1.054 2v0.043h-1.007zM84.377 46.783c0-0.002 0-0.004 0-0.007 0-0.076-0.014-0.15-0.040-0.217l0.001 0.004c-0.028-0.074-0.073-0.135-0.131-0.182l-0.001-0.001c-0.079-0.065-0.169-0.12-0.266-0.163l-0.007-0.003c-0.122-0.057-0.272-0.114-0.427-0.162l-0.027-0.007c-0.241-0.078-0.436-0.154-0.626-0.241l0.036 0.015c-0.187-0.084-0.348-0.182-0.495-0.296l0.006 0.004c-0.134-0.108-0.246-0.238-0.329-0.387l-0.003-0.007c-0.076-0.144-0.12-0.315-0.12-0.496 0-0.008 0-0.015 0-0.023v0.001c-0-0.004-0-0.009-0-0.014 0-0.184 0.046-0.357 0.128-0.509l-0.003 0.006c0.084-0.158 0.201-0.291 0.351-0.402 0.15-0.114 0.329-0.2 0.534-0.261 0.208-0.060 0.434-0.091 0.681-0.091 0.336 0 0.631 0.061 0.882 0.182 0.252 0.122 0.446 0.288 0.584 0.499 0.14 0.211 0.21 0.453 0.21 0.725h-0.935c0-0.005 0-0.010 0-0.016 0-0.123-0.031-0.238-0.087-0.339l0.002 0.004c-0.057-0.105-0.143-0.188-0.247-0.241l-0.003-0.002c-0.113-0.056-0.247-0.088-0.388-0.088-0.012 0-0.023 0-0.035 0.001l0.002-0c-0.009-0-0.020-0.001-0.031-0.001-0.136 0-0.265 0.028-0.382 0.078l0.006-0.002c-0.101 0.042-0.185 0.11-0.244 0.196l-0.001 0.002c-0.051 0.076-0.082 0.169-0.082 0.269 0 0.002 0 0.005 0 0.007v-0c0 0.077 0.018 0.148 0.056 0.21 0.048 0.070 0.106 0.129 0.174 0.174l0.002 0.001c0.077 0.055 0.171 0.106 0.285 0.154s0.244 0.095 0.392 0.141c0.25 0.075 0.468 0.16 0.657 0.254 0.19 0.094 0.349 0.199 0.477 0.317 0.129 0.118 0.224 0.25 0.289 0.399 0.064 0.149 0.096 0.317 0.096 0.506 0.001 0.013 0.001 0.029 0.001 0.044 0 0.364-0.177 0.686-0.45 0.886l-0.003 0.002c-0.146 0.108-0.321 0.191-0.524 0.248-0.204 0.057-0.43 0.086-0.68 0.086-0.226 0-0.45-0.030-0.669-0.089-0.228-0.063-0.428-0.156-0.607-0.278l0.007 0.005c-0.176-0.121-0.32-0.276-0.424-0.457l-0.004-0.007c-0.107-0.189-0.16-0.411-0.16-0.669h0.945c0 0.142 0.021 0.263 0.065 0.361 0.042 0.096 0.105 0.176 0.184 0.237l0.001 0.001c0.082 0.060 0.179 0.106 0.284 0.131l0.005 0.001c0.112 0.028 0.236 0.041 0.371 0.041 0.010 0 0.022 0.001 0.034 0.001 0.132 0 0.258-0.025 0.373-0.072l-0.007 0.002c0.185-0.075 0.314-0.253 0.314-0.461 0-0.002 0-0.005-0-0.007v0z"></path>
</symbol>

<symbol id="icon-company" viewBox="0 0 111 60">
<path d="M39.439 52.739c0.017 0 0.034 0.004 0.049 0.011 0.017 0.006 0.031 0.014 0.043 0.025l-0-0 0.236 0.223c-0.185 0.179-0.406 0.323-0.651 0.418l-0.013 0.005c-0.3 0.107-0.621 0.159-0.944 0.151-0.015 0-0.032 0-0.049 0-0.301 0-0.589-0.052-0.857-0.147l0.018 0.006c-0.258-0.092-0.481-0.228-0.669-0.4l0.002 0.001c-0.182-0.169-0.328-0.375-0.427-0.606l-0.004-0.012c-0.096-0.227-0.151-0.491-0.151-0.768 0-0.008 0-0.016 0-0.024v0.001c-0-0.008-0-0.017-0-0.026 0-0.278 0.060-0.542 0.168-0.78l-0.005 0.012c0.103-0.229 0.259-0.439 0.459-0.616 0.2-0.172 0.436-0.309 0.694-0.398l0.015-0.005c0.264-0.090 0.568-0.142 0.884-0.142 0.011 0 0.021 0 0.032 0h-0.002c0.289-0.005 0.579 0.039 0.849 0.129 0.235 0.088 0.45 0.208 0.636 0.357l-0.198 0.238c-0.014 0.017-0.031 0.031-0.049 0.042l-0.001 0c-0.020 0.012-0.044 0.019-0.069 0.019-0.004 0-0.008-0-0.012-0l0.001 0c-0.032-0.002-0.061-0.011-0.087-0.026l0.001 0.001-0.107-0.063-0.147-0.080c-0.135-0.065-0.292-0.115-0.457-0.141l-0.010-0.001c-0.097-0.016-0.209-0.025-0.323-0.025-0.010 0-0.021 0-0.031 0h0.002c-0.007-0-0.015-0-0.023-0-0.227 0-0.445 0.039-0.647 0.11l0.014-0.004c-0.199 0.069-0.37 0.17-0.516 0.299l0.002-0.001c-0.148 0.138-0.261 0.3-0.334 0.476-0.077 0.179-0.121 0.387-0.121 0.606 0 0.007 0 0.015 0 0.022v-0.001c-0 0.007-0 0.016-0 0.024 0 0.221 0.045 0.431 0.125 0.623l-0.004-0.011c0.152 0.362 0.446 0.638 0.81 0.763l0.009 0.003c0.193 0.069 0.4 0.103 0.609 0.101 0.121 0.002 0.242-0.005 0.361-0.020 0.3-0.030 0.568-0.148 0.783-0.328l-0.002 0.002c0.031-0.025 0.070-0.040 0.112-0.041h0zM46.271 51.621c0.004 0.268-0.050 0.536-0.16 0.786-0.106 0.242-0.257 0.445-0.444 0.609l-0.002 0.002c-0.197 0.174-0.435 0.311-0.699 0.4-0.269 0.090-0.578 0.141-0.899 0.141s-0.63-0.052-0.92-0.147l0.021 0.006c-0.269-0.093-0.5-0.23-0.699-0.404l0.002 0.002c-0.189-0.168-0.34-0.373-0.444-0.605l-0.005-0.011c-0.101-0.232-0.16-0.503-0.16-0.788s0.059-0.555 0.165-0.801l-0.005 0.013c0.101-0.229 0.254-0.439 0.45-0.619 0.198-0.168 0.435-0.3 0.695-0.386 0.579-0.193 1.219-0.193 1.798 0 0.263 0.091 0.5 0.227 0.698 0.402 0.373 0.333 0.607 0.815 0.607 1.352 0 0.017-0 0.033-0.001 0.049l0-0.002zM45.649 51.621c0.005-0.214-0.032-0.429-0.111-0.632-0.144-0.367-0.44-0.647-0.807-0.768l-0.009-0.003c-0.195-0.066-0.42-0.104-0.654-0.104s-0.458 0.038-0.668 0.108l0.015-0.004c-0.194 0.068-0.361 0.17-0.501 0.3l0.001-0.001c-0.138 0.128-0.246 0.286-0.316 0.463l-0.003 0.009c-0.15 0.413-0.15 0.853 0 1.264 0.066 0.175 0.176 0.335 0.319 0.472 0.139 0.129 0.311 0.23 0.5 0.296 0.421 0.135 0.885 0.135 1.307 0 0.19-0.065 0.361-0.167 0.499-0.296 0.142-0.137 0.25-0.299 0.317-0.472 0.079-0.204 0.118-0.418 0.111-0.632zM50.931 52.285l0.062 0.141c0.025-0.050 0.045-0.096 0.069-0.141 0.023-0.048 0.048-0.094 0.077-0.139l1.511-2.346c0.030-0.042 0.057-0.066 0.086-0.075 0.030-0.008 0.065-0.012 0.101-0.012 0.008 0 0.016 0 0.024 0.001l-0.001-0h0.447v3.818h-0.529v-2.925c-0.001-0.020-0.002-0.043-0.002-0.066s0.001-0.046 0.002-0.069l-0 0.003-1.52 2.38c-0.021 0.037-0.051 0.067-0.088 0.086l-0.001 0.001c-0.037 0.020-0.081 0.032-0.128 0.032-0.001 0-0.001 0-0.002 0h-0.086c-0.001 0-0.002 0-0.003 0-0.047 0-0.090-0.012-0.129-0.033l0.001 0.001c-0.037-0.020-0.067-0.049-0.087-0.085l-0.001-0.001-1.564-2.396v3.064h-0.512v-3.81h0.447c0.006-0 0.012-0 0.019-0 0.037 0 0.073 0.005 0.107 0.014l-0.003-0.001c0.036 0.014 0.065 0.040 0.083 0.072l0 0.001 1.543 2.35c0.031 0.043 0.057 0.090 0.077 0.137zM56.62 52.095v1.429h-0.591v-3.812h1.318c0.25-0.004 0.498 0.024 0.737 0.084 0.192 0.046 0.369 0.126 0.521 0.237 0.126 0.098 0.227 0.224 0.293 0.369l0.003 0.006c0.070 0.155 0.104 0.32 0.101 0.488 0 0.005 0 0.011 0 0.017 0 0.348-0.167 0.656-0.426 0.85l-0.003 0.002c-0.149 0.112-0.324 0.199-0.514 0.25l-0.011 0.002c-0.229 0.062-0.47 0.092-0.711 0.088l-0.716-0.011zM56.62 51.686h0.716c0.155 0.001 0.311-0.018 0.459-0.059 0.127-0.036 0.237-0.093 0.334-0.166l-0.003 0.002c0.166-0.133 0.272-0.336 0.272-0.564 0-0.003 0-0.006-0-0.009v0c0.001-0.012 0.001-0.025 0.001-0.039 0-0.099-0.023-0.192-0.063-0.276l0.002 0.004c-0.050-0.104-0.12-0.191-0.205-0.259l-0.001-0.001c-0.198-0.13-0.441-0.208-0.702-0.208-0.033 0-0.065 0.001-0.098 0.004l0.004-0h-0.716v1.572zM64.569 53.53h-0.467c-0.002 0-0.005 0-0.008 0-0.045 0-0.087-0.013-0.122-0.036l0.001 0.001c-0.032-0.023-0.059-0.052-0.077-0.087l-0.001-0.001-0.402-0.923h-2.021l-0.417 0.921c-0.017 0.035-0.042 0.064-0.073 0.085l-0.001 0c-0.035 0.024-0.079 0.039-0.126 0.039-0.002 0-0.005-0-0.007-0h-0.467l1.774-3.818h0.615l1.798 3.818zM61.641 52.112h1.668l-0.704-1.554c-0.048-0.099-0.093-0.218-0.129-0.341l-0.004-0.018-0.068 0.199c-0.021 0.061-0.044 0.116-0.064 0.161l-0.699 1.554zM67.125 49.729c0.035 0.017 0.064 0.040 0.087 0.068l0 0 2.589 2.878v-2.964h0.529v3.818h-0.296c-0.003 0-0.008 0-0.012 0-0.040 0-0.078-0.008-0.112-0.022l0.002 0.001c-0.037-0.019-0.068-0.043-0.094-0.071l-0-0-2.584-2.876c0.001 0.020 0.002 0.043 0.002 0.066s-0.001 0.046-0.002 0.069l0-0.003v2.837h-0.529v-3.818h0.313c0.036-0.001 0.073 0.004 0.107 0.017zM74.689 52.011v1.516h-0.591v-1.516l-1.635-2.299h0.529c0.004-0 0.009-0 0.014-0 0.042 0 0.082 0.012 0.115 0.033l-0.001-0.001c0.032 0.025 0.059 0.054 0.079 0.086l1.023 1.484c0.070 0.098 0.131 0.209 0.177 0.328l0.003 0.010 0.077-0.164c0.029-0.060 0.063-0.118 0.101-0.175l1.008-1.494c0.022-0.031 0.048-0.058 0.076-0.081l0.001-0.001c0.032-0.024 0.073-0.038 0.117-0.038 0.004 0 0.007 0 0.011 0h0.535l-1.639 2.31zM50.639 43.304c0.257 0.028 0.517 0.050 0.781 0.071 3.991-1.525 7.366-4.021 9.706-7.177 2.339-3.155 3.538-6.829 3.446-10.564l-4.397-3.758c0.894 3.976 0.476 8.086-1.209 11.871-1.684 3.783-4.568 7.093-8.327 9.557z"></path>
<path d="M49.068 43.129l0.118 0.020c4.018-2.456 7.082-5.884 8.794-9.843 1.713-3.959 1.996-8.265 0.812-12.363l-6.264-5.352c2.534 4.399 3.554 9.323 2.941 14.196-0.613 4.875-2.833 9.501-6.401 13.341zM70.313 30.045c-1.064 4.104-3.649 7.804-7.37 10.554-1.014 0.759-2.161 1.473-3.367 2.085l-0.134 0.062c3.030-0.761 5.816-2.106 8.141-3.932 2.325-1.827 4.129-4.084 5.271-6.6l-2.539-2.169z"></path>
<path d="M69.316 29.441l-3.617-3.090c-0.070 3.523-1.242 6.966-3.395 9.972s-5.21 5.463-8.852 7.117h0.018c0.811 0 1.622-0.042 2.428-0.123 3.403-1.187 6.41-3.075 8.751-5.496s3.945-5.3 4.667-8.379zM49.592 13.335l-4.314-3.692c-3.857 1.274-7.175 3.512-9.519 6.423-2.344 2.912-3.604 6.36-3.616 9.894 0.015 3.903 1.553 7.693 4.371 10.766 2.818 3.073 6.755 5.255 11.188 6.203 3.958-4.121 6.275-9.211 6.615-14.533s-1.316-10.596-4.725-15.060zM79.286 28.873c-0.016-4.632-2.176-9.071-6.011-12.346-3.832-3.275-9.028-5.121-14.449-5.135-0.014-0-0.031-0-0.047-0-2.603 0-5.106 0.426-7.444 1.213l0.165-0.048 26.42 22.573c0.86-1.837 1.363-3.988 1.366-6.256v-0.001z"></path>
</symbol>

<symbol id="icon-company-tagline" viewBox="0 0 111 60">
<path d="M53.694 6.359h-0.147c-0.225-0.014-0.45-0.019-0.675-0.025h-0.488c-0.425 0-0.859 0.011-1.29 0.032-0.015-0.001-0.032-0.002-0.049-0.002s-0.034 0.001-0.051 0.002l0.002-0c-4.137 0.241-7.977 1.276-11.449 2.953l0.181-0.079-0.463 0.223v23.724l1.084-0.369c0.951-0.327 1.965-0.621 3.014-0.894 2.591-0.693 5.574-1.111 8.648-1.152l0.025-0v3.117c-0.388 0.002-0.764 0.013-1.141 0.032h-0.090c-2.436 0.137-4.717 0.502-6.914 1.078l0.241-0.054c-3.019 0.768-5.665 1.829-8.125 3.187l0.175-0.088v-30.425c2.401-1.427 5.179-2.591 8.12-3.344l0.221-0.048c2.356-0.634 5.062-1.003 7.853-1.014h0.464c0.547 0.014 1.082 0.039 1.584 0.076 1.321 0.093 2.631 0.302 3.916 0.625v3.067c-1.093-0.268-2.389-0.471-3.715-0.568l-0.079-0.005-0.078-0.006c-0.265-0.022-0.529-0.045-0.776-0.045zM59.092 9.494c0.68 0.053 1.385 0.077 2.098 0.077 2.941-0.011 5.787-0.398 8.499-1.113l-0.235 0.053c3.018-0.77 5.663-1.832 8.121-3.188l-0.175 0.089v29.882c-2.402 1.426-5.179 2.589-8.121 3.344l-0.221 0.048c-2.356 0.631-5.063 1-7.854 1.011h-0.007c-0.057 0-0.125 0.001-0.193 0.001-2.049 0-4.037-0.257-5.936-0.739l0.166 0.036v-30.077c0.461 0.107 0.935 0.205 1.417 0.286 0.792 0.134 1.626 0.231 2.44 0.291zM74.3 9.726l-1.084 0.364c-0.996 0.335-2.004 0.635-3.014 0.902-2.7 0.723-5.801 1.143-8.999 1.155h-0.007c-0.707 0-1.358-0.019-1.986-0.060l-0.865-0.057v24.404l0.742 0.064c0.688 0.061 1.398 0.091 2.114 0.091 2.525-0.011 4.967-0.345 7.294-0.964l-0.201 0.045c2.126-0.54 3.971-1.222 5.721-2.070l-0.177 0.077 0.463-0.223v-23.73z"></path>
<path d="M38.29 48.441c-0.291-0.301-0.699-0.488-1.15-0.488-0.020 0-0.040 0-0.059 0.001l0.003-0c-0.007-0-0.016-0-0.024-0-0.242 0-0.473 0.048-0.684 0.135l0.012-0.004c-0.412 0.165-0.731 0.488-0.888 0.891l-0.004 0.011c-0.086 0.214-0.127 0.443-0.124 0.673v4.065c-0.011 0.286 0.045 0.571 0.16 0.834 0.096 0.209 0.235 0.394 0.407 0.545 0.162 0.136 0.352 0.236 0.557 0.289 0.198 0.055 0.403 0.084 0.608 0.084 0.226 0.002 0.45-0.046 0.656-0.141 0.61-0.271 1.028-0.872 1.029-1.57v-0.454h-1.064v0.362c0 0.007 0 0.016 0 0.025 0 0.121-0.023 0.237-0.065 0.344l0.002-0.006c-0.036 0.090-0.089 0.166-0.154 0.229l-0 0c-0.122 0.095-0.276 0.153-0.444 0.155h-0.001c-0.019 0.002-0.040 0.004-0.062 0.004-0.179 0-0.337-0.087-0.435-0.221l-0.001-0.002c-0.089-0.143-0.142-0.317-0.142-0.504 0-0.014 0-0.029 0.001-0.043l-0 0.002v-3.791c-0.006-0.21 0.039-0.418 0.131-0.608 0.098-0.151 0.266-0.249 0.457-0.249 0.022 0 0.044 0.001 0.066 0.004l-0.003-0c0.006-0 0.013-0 0.020-0 0.186 0 0.351 0.090 0.453 0.228l0.001 0.002c0.11 0.143 0.176 0.325 0.176 0.523 0 0.008-0 0.016-0 0.024v-0.001 0.351h1.052v-0.415c0-0.005 0-0.012 0-0.018 0-0.249-0.048-0.488-0.134-0.706l0.005 0.013c-0.083-0.222-0.204-0.413-0.356-0.573l0.001 0.001zM44.602 48.396c-0.324-0.276-0.746-0.444-1.208-0.448h-0.001c-0.216 0-0.432 0.040-0.634 0.115-0.438 0.157-0.785 0.48-0.97 0.891l-0.004 0.011c-0.107 0.248-0.161 0.516-0.155 0.788v3.898c-0.008 0.274 0.046 0.546 0.155 0.798 0.096 0.21 0.236 0.396 0.411 0.545 0.163 0.15 0.354 0.268 0.561 0.343 0.204 0.075 0.418 0.114 0.634 0.115 0.464-0.001 0.888-0.174 1.211-0.459l-0.002 0.002c0.169-0.152 0.305-0.337 0.401-0.545 0.109-0.251 0.162-0.524 0.155-0.798v-3.899c0-0.010 0-0.022 0-0.034 0-0.272-0.057-0.531-0.16-0.765l0.005 0.012c-0.099-0.223-0.234-0.412-0.4-0.569l-0.001-0.001zM44.106 53.651c0.002 0.018 0.003 0.039 0.003 0.060 0 0.198-0.082 0.377-0.213 0.504l-0 0c-0.134 0.113-0.309 0.182-0.5 0.182s-0.366-0.069-0.502-0.183l0.001 0.001c-0.132-0.127-0.214-0.305-0.214-0.502 0-0.022 0.001-0.044 0.003-0.065l-0 0.003v-3.899c-0.002-0.018-0.003-0.039-0.003-0.060 0-0.198 0.082-0.376 0.213-0.503l0-0c0.134-0.113 0.309-0.182 0.5-0.182s0.366 0.069 0.502 0.183l-0.001-0.001c0.132 0.127 0.214 0.306 0.214 0.503 0 0.021-0.001 0.042-0.003 0.063l0-0.003v3.9zM52.893 55.393v-7.382h-1.021l-1.343 3.907h-0.018l-1.353-3.906h-1.010v7.38h1.054v-4.489h0.019l1.032 3.174h0.526l1.040-3.174h0.019v4.489h1.054zM58.884 48.529c-0.162-0.182-0.367-0.321-0.596-0.404-0.216-0.073-0.466-0.115-0.725-0.115-0.014 0-0.028 0-0.043 0l0.002-0h-1.566v7.382h1.052v-2.883h0.541c0.329 0.015 0.655-0.055 0.949-0.201 0.241-0.136 0.437-0.327 0.574-0.558l0.004-0.007c0.121-0.196 0.204-0.415 0.241-0.643 0.036-0.232 0.057-0.5 0.057-0.773 0-0.023-0-0.046-0-0.070l0 0.004c0.011-0.354-0.025-0.709-0.103-1.054-0.074-0.266-0.209-0.494-0.388-0.679l0 0zM58.341 50.779c-0.005 0.141-0.040 0.273-0.1 0.39l0.002-0.005c-0.061 0.113-0.154 0.203-0.267 0.257l-0.004 0.002c-0.13 0.060-0.282 0.095-0.442 0.095-0.019 0-0.038-0.001-0.057-0.001l0.003 0h-0.48v-2.509h0.542c0.015-0.001 0.033-0.001 0.051-0.001 0.154 0 0.3 0.034 0.43 0.096l-0.006-0.003c0.109 0.063 0.194 0.157 0.245 0.268l0.002 0.004c0.058 0.13 0.089 0.27 0.092 0.411v0.491c0 0.171 0.011 0.349 0 0.507h-0.011zM63.866 48.011h-0.862l-1.626 7.382h1.052l0.309-1.586h1.435l0.309 1.586h1.051l-1.666-7.382zM62.895 52.801l0.518-2.675h0.019l0.514 2.675h-1.051zM70.661 52.457h-0.019l-1.588-4.446h-1.011v7.382h1.051v-4.439h0.021l1.607 4.438h0.99v-7.38h-1.051v4.446zM77.087 48.011l-0.846 2.936h-0.021l-0.846-2.936h-1.112l1.444 4.262v3.119h1.052v-3.119l1.444-4.261h-1.114zM35.357 57.477h0.507v1.422h0.344v-1.423h0.504v-0.291h-1.354v0.292zM39.618 57.184l-0.664 1.714h0.365l0.141-0.39h0.684l0.146 0.39h0.375l-0.681-1.714h-0.365zM39.565 58.22l0.232-0.635 0.232 0.635h-0.466zM43.83 58.266h0.396v0.221c-0.11 0.089-0.252 0.144-0.407 0.145h-0c-0.007 0-0.016 0.001-0.025 0.001-0.137 0-0.26-0.064-0.339-0.164l-0.001-0.001c-0.080-0.114-0.127-0.256-0.127-0.408 0-0.014 0-0.027 0.001-0.040l-0 0.002c0-0.381 0.165-0.572 0.493-0.572 0.011-0.001 0.024-0.002 0.037-0.002 0.169 0 0.311 0.116 0.35 0.273l0.001 0.003 0.339-0.066c-0.073-0.334-0.314-0.504-0.726-0.504-0.007-0-0.015-0-0.023-0-0.222 0-0.424 0.084-0.577 0.222l0.001-0.001c-0.154 0.152-0.249 0.362-0.249 0.595 0 0.023 0.001 0.045 0.003 0.067l-0-0.003c-0.001 0.012-0.001 0.026-0.001 0.040 0 0.23 0.083 0.441 0.222 0.604l-0.001-0.001c0.151 0.156 0.363 0.253 0.598 0.253 0.019 0 0.037-0.001 0.055-0.002l-0.002 0c0.008 0 0.018 0 0.028 0 0.27 0 0.516-0.104 0.699-0.274l-0.001 0.001v-0.675h-0.743v0.289zM48.132 57.184h-0.347v1.714h1.2v-0.291h-0.853v-1.423zM51.769 57.184h-0.347v1.714h0.347v-1.714zM55.324 58.329l-0.702-1.144h-0.335v1.714h0.321v-1.12l0.689 1.12h0.345v-1.714h-0.318v1.145zM58.54 58.143h0.854v-0.291h-0.854v-0.375h0.918v-0.292h-1.265v1.714h1.301v-0.291h-0.954v-0.464zM66.334 57.86h-0.675v-0.675h-0.343v1.713h0.343v-0.75h0.675v0.75h0.345v-1.714h-0.345v0.676zM69.568 58.143h0.857v-0.291h-0.857v-0.375h0.921v-0.292h-1.264v1.714h1.299v-0.291h-0.954v-0.464zM73.953 58.144c0.299-0.047 0.45-0.205 0.45-0.477 0.002-0.014 0.003-0.031 0.003-0.048 0-0.137-0.067-0.258-0.17-0.333l-0.001-0.001c-0.127-0.065-0.276-0.103-0.435-0.103-0.023 0-0.047 0.001-0.070 0.002l0.003-0h-0.726v1.713h0.345v-0.717h0.068c0.008-0.001 0.018-0.001 0.028-0.001 0.068 0 0.132 0.015 0.19 0.041l-0.003-0.001c0.050 0.031 0.092 0.074 0.122 0.125l0.374 0.544h0.411l-0.209-0.334c-0.094-0.167-0.222-0.305-0.375-0.409l-0.004-0.003zM73.606 57.906h-0.254v-0.43h0.271c0.022-0.002 0.047-0.003 0.072-0.003 0.099 0 0.194 0.016 0.283 0.045l-0.006-0.002c0.046 0.041 0.075 0.101 0.075 0.168 0 0.074-0.036 0.139-0.090 0.18l-0.001 0c-0.086 0.027-0.184 0.043-0.286 0.043-0.023 0-0.045-0.001-0.067-0.002l0.003 0zM77.261 58.143h0.853v-0.291h-0.853v-0.375h0.921v-0.292h-1.269v1.714h1.301v-0.291h-0.954v-0.464z"></path>
</symbol>

<symbol id="icon-yaco" viewBox="0 0 111 60">
<path d="M40.714 7.5l7.509 7.153-13.937-0.006v34.704h36.429v-13.269l7.5 7.145v-35.727h-37.5zM70.384 35.241l-21.289-20.282h21.289v20.282zM63.775 44.274h-23.725v-23.34h1.677v21.761h22.048v1.581zM44.781 55.781l-0.884-1.819h-0.73l1.281 2.406v1.403h0.661v-1.403l1.282-2.406h-0.727l-0.884 1.818zM48.041 53.961h0.156l1.439 3.809h-0.69l-0.309-0.891h-1.474l-0.308 0.891h-0.688l1.434-3.809h0.439zM47.342 56.358h1.115l-0.557-1.616-0.557 1.616zM51.945 55.726c-0.011-0.013-0.038-0.048-0.065-0.082l-0.018-0.024c-0.085-0.109-0.161-0.231-0.223-0.362l-0.005-0.012c-0.051-0.111-0.080-0.24-0.080-0.376 0-0 0-0.001 0-0.001v0c0-0.198 0.041-0.369 0.122-0.512 0.082-0.142 0.201-0.255 0.344-0.328l0.005-0.002c0.15-0.078 0.326-0.118 0.525-0.118 0.194 0 0.361 0.040 0.5 0.118 0.265 0.14 0.443 0.413 0.443 0.728 0 0.118-0.025 0.23-0.070 0.331l0.002-0.005c-0.047 0.105-0.108 0.195-0.183 0.273l0-0c-0.080 0.085-0.167 0.162-0.26 0.23l-0.005 0.004-0.265 0.193 0.754 0.889c0.103-0.199 0.164-0.434 0.164-0.684 0-0.010-0-0.019-0-0.029v0.001h0.544c0 0.185-0.018 0.36-0.055 0.525-0.051 0.24-0.148 0.451-0.282 0.633l0.003-0.005 0.557 0.659h-0.729l-0.222-0.26c-0.112 0.086-0.241 0.159-0.38 0.211l-0.010 0.003c-0.172 0.063-0.371 0.099-0.578 0.099-0.005 0-0.010 0-0.015-0h0.001c-0.253 0-0.471-0.046-0.657-0.139-0.178-0.087-0.323-0.217-0.426-0.377l-0.003-0.004c-0.094-0.154-0.15-0.34-0.15-0.54 0-0.006 0-0.012 0-0.018v0.001c0-0.155 0.032-0.291 0.096-0.407 0.065-0.119 0.153-0.229 0.265-0.331 0.103-0.093 0.221-0.186 0.354-0.28zM52.258 56.11l-0.079 0.057c-0.080 0.062-0.148 0.134-0.205 0.214l-0.002 0.003c-0.067 0.099-0.107 0.221-0.107 0.352 0 0.106 0.026 0.206 0.072 0.294l-0.002-0.003c0.050 0.092 0.122 0.165 0.209 0.216l0.003 0.001c0.094 0.050 0.205 0.080 0.323 0.080 0.007 0 0.014-0 0.021-0h-0.001c0.145 0 0.285-0.032 0.421-0.096 0.074-0.037 0.137-0.077 0.195-0.123l-0.002 0.002-0.846-0.996zM52.408 55.413l0.234-0.156c0.093-0.057 0.171-0.129 0.234-0.212l0.002-0.002c0.045-0.071 0.071-0.157 0.071-0.25 0-0.006-0-0.012-0-0.019v0.001c-0.007-0.204-0.174-0.367-0.379-0.367-0.008 0-0.015 0-0.023 0.001l0.001-0c-0.003-0-0.007-0-0.011-0-0.155 0-0.289 0.091-0.351 0.223l-0.001 0.002c-0.029 0.064-0.045 0.138-0.045 0.216 0 0.091 0.023 0.177 0.063 0.253l-0.001-0.003c0.040 0.083 0.094 0.168 0.165 0.259l0.043 0.056zM59.072 56.531h-0.655c-0.015 0.156-0.057 0.299-0.123 0.428l0.003-0.007c-0.059 0.113-0.15 0.202-0.261 0.258l-0.003 0.002c-0.121 0.057-0.263 0.090-0.412 0.090-0.014 0-0.028-0-0.042-0.001l0.002 0c-0.006 0-0.014 0-0.022 0-0.137 0-0.265-0.034-0.378-0.095l0.004 0.002c-0.112-0.064-0.204-0.151-0.27-0.256l-0.002-0.003c-0.070-0.115-0.125-0.249-0.155-0.391l-0.001-0.008c-0.032-0.151-0.050-0.325-0.050-0.503 0-0.007 0-0.014 0-0.021v0.001-0.321c0-0.204 0.018-0.383 0.055-0.54 0.039-0.159 0.096-0.291 0.171-0.4 0.071-0.104 0.165-0.188 0.274-0.245l0.004-0.002c0.109-0.053 0.237-0.084 0.372-0.084 0.008 0 0.015 0 0.022 0h-0.001c0.182 0 0.331 0.032 0.445 0.094 0.112 0.061 0.198 0.15 0.256 0.268 0.059 0.116 0.098 0.257 0.115 0.42h0.654c-0.023-0.252-0.1-0.482-0.218-0.685l0.004 0.008c-0.117-0.197-0.282-0.355-0.48-0.46l-0.007-0.003c-0.21-0.107-0.457-0.169-0.72-0.169-0.017 0-0.034 0-0.051 0.001l0.002-0c-0.239 0-0.454 0.043-0.646 0.126-0.191 0.084-0.354 0.204-0.49 0.364-0.136 0.159-0.243 0.348-0.311 0.555l-0.003 0.012c-0.072 0.221-0.107 0.469-0.107 0.742v0.317c0 0.273 0.035 0.521 0.105 0.743 0.071 0.222 0.175 0.41 0.309 0.568 0.134 0.155 0.296 0.275 0.483 0.361 0.189 0.084 0.401 0.125 0.636 0.125 0.306 0 0.568-0.056 0.782-0.167 0.214-0.112 0.38-0.265 0.499-0.459 0.118-0.195 0.189-0.418 0.209-0.666zM62.704 55.97v-0.209c0-0.287-0.038-0.545-0.115-0.771-0.071-0.225-0.181-0.42-0.323-0.586l0.002 0.002c-0.135-0.157-0.302-0.282-0.492-0.365l-0.009-0.003c-0.193-0.086-0.407-0.129-0.643-0.129-0.234 0-0.448 0.043-0.641 0.129-0.193 0.084-0.359 0.207-0.5 0.369-0.139 0.161-0.246 0.356-0.324 0.584-0.074 0.22-0.116 0.474-0.116 0.737 0 0.012 0 0.024 0 0.036v-0.002 0.209c0 0.288 0.039 0.546 0.116 0.775 0.075 0.225 0.187 0.419 0.331 0.585l-0.002-0.002c0.141 0.161 0.309 0.284 0.499 0.37 0.194 0.084 0.407 0.125 0.642 0.125 0.236 0 0.45-0.043 0.643-0.125 0.193-0.086 0.36-0.209 0.497-0.37 0.139-0.161 0.246-0.354 0.321-0.583 0.075-0.228 0.113-0.486 0.113-0.775zM62.049 55.756v0.214c0 0.213-0.021 0.402-0.063 0.566-0.036 0.158-0.098 0.297-0.181 0.42l0.003-0.004c-0.074 0.107-0.17 0.193-0.283 0.252l-0.004 0.002c-0.109 0.053-0.237 0.084-0.373 0.084-0.006 0-0.012-0-0.018-0h0.001c-0.005 0-0.011 0-0.017 0-0.135 0-0.263-0.031-0.376-0.086l0.005 0.002c-0.118-0.062-0.216-0.148-0.291-0.251l-0.002-0.002c-0.082-0.119-0.145-0.258-0.181-0.407l-0.002-0.009c-0.040-0.161-0.063-0.346-0.063-0.536 0-0.010 0-0.021 0-0.031v0.002-0.214c0-0.212 0.021-0.4 0.063-0.563 0.043-0.164 0.102-0.3 0.18-0.41 0.075-0.106 0.172-0.191 0.286-0.249l0.004-0.002c0.109-0.055 0.237-0.087 0.373-0.087 0.005 0 0.011 0 0.016 0h-0.001c0.145 0 0.274 0.029 0.39 0.086 0.115 0.057 0.211 0.139 0.289 0.252 0.080 0.109 0.141 0.246 0.181 0.41 0.043 0.163 0.063 0.35 0.063 0.563z"></path>
</symbol>

<symbol id="icon-antenna" viewBox="0 0 60 60">
<path fill="#2e2f42" style="fill: var(--color1, #2e2f42)" d="M57.699 41.433l-15.831-15.947 1.757-8.653c0.454 0.176 0.936 0.269 1.422 0.272h0.012c0.014 0 0.031 0 0.048 0 2.236 0 4.048-1.812 4.048-4.048s-1.812-4.048-4.048-4.048c-2.236 0-4.048 1.812-4.048 4.048 0 0.487 0.086 0.953 0.243 1.385l-0.009-0.028-9.3 1.134-15.171-15.248c-0.18-0.183-0.429-0.298-0.706-0.3h-0c-0.263 0.001-0.514 0.106-0.7 0.291l-2.836 2.82c-0.181 0.181-0.293 0.431-0.293 0.707s0.112 0.526 0.293 0.707v0l1.526 1.547c-2.143 3.867-3.404 8.479-3.404 13.385 0 7.698 3.105 14.672 8.131 19.736l-0.002-0.002c0.079 0.076 0.172 0.138 0.273 0.183-0.060 0.307-0.095 0.662-0.097 1.024v11.603h-12c-2.761 0.003-4.998 2.239-5.002 4.999v2c0 0.553 0.448 1 1 1h46c0.552 0 1-0.448 1-1v-2c-0.004-2.76-2.24-4.996-5-5h-12v-5.141c1.88 0.394 3.795 0.595 5.716 0.6 4.837-0.005 9.384-1.243 13.345-3.417l-0.145 0.073 1.535 1.543c0.186 0.189 0.44 0.298 0.706 0.3 0.263-0.002 0.514-0.106 0.699-0.291l2.836-2.821c0.181-0.181 0.293-0.431 0.293-0.707s-0.112-0.526-0.293-0.707v0zM43.65 11.687c0.361-0.359 0.86-0.581 1.41-0.581 1.104 0 2 0.895 2 2s-0.895 2-2 2c-0 0-0 0-0 0h-0.006c-1.1-0.006-1.99-0.899-1.99-2 0-0.554 0.226-1.056 0.59-1.418l0-0h-0.004zM41.296 18.259l-1.122 5.522-2.204-2.216 3.326-3.307zM40.16 16.567l-3.6 3.578-2.784-2.8 6.384-0.778zM45.008 54c1.657 0 3 1.343 3 3v0 1h-44v-1c0-1.657 1.343-3 3-3h38zM31.008 50v2.001h-10v-2.001h10zM21.008 48v-7.6c0-2.425 2.243-4.4 5-4.4s5.001 1.974 5.001 4.4v7.6h-10zM33.008 44.82v-4.42c0-3.529-3.141-6.399-6.999-6.399-0.033-0.001-0.072-0.001-0.11-0.001-2.536 0-4.763 1.325-6.025 3.32l-0.017 0.029c-4.424-4.653-7.146-10.961-7.146-17.905 0-4.339 1.063-8.43 2.942-12.026l-0.068 0.143 34.879 35.078c-3.417 1.775-7.462 2.816-11.749 2.816-2.023 0-3.991-0.232-5.88-0.67l0.175 0.034zM54.174 43.538l-39.482-39.713 1.416-1.41 14.878 14.963c0.007 0 0.010 0.012 0.018 0.018l24.59 24.733-1.419 1.41z"></path>
<path fill="#4d5ae5" style="fill: var(--color2, #4d5ae5)" d="M26.017 38h-0.009c-0.001 0-0.003 0-0.005 0-1.657 0-3 1.343-3 3 0 1.655 1.34 2.997 2.995 3h0.010c0.001 0 0.003 0 0.005 0 1.657 0 3-1.343 3-3 0-1.655-1.34-2.997-2.995-3h-0zM26.717 41.709c-0.181 0.179-0.429 0.29-0.704 0.29-0.552 0-1-0.448-1-1 0-0.001 0-0.003 0-0.004v0c0.004-0.548 0.447-0.991 0.994-0.995h0c0.55 0.003 0.995 0.45 0.995 1 0 0.277-0.113 0.528-0.294 0.709l-0 0h0.009z"></path>
</symbol>

<symbol id="icon-clock" viewBox="0 0 60 60">
<path fill="#2e2f42" style="fill: var(--color1, #2e2f42)" d="M58.681 28.689c-0.003-15.848-12.853-28.692-28.703-28.689-15.848 0.003-28.692 12.853-28.689 28.703 0.003 12.727 8.292 23.518 19.765 27.273l0.203 0.057c0.113 0.036 0.232 0.054 0.35 0.053 0.227 0 0.448-0.061 0.642-0.175 0.253-0.15 0.443-0.388 0.532-0.668l7.247-22.969c1.975-0.007 3.574-1.61 3.574-3.587 0-1.981-1.606-3.587-3.587-3.587-0.568 0-1.106 0.132-1.583 0.367l0.021-0.009-9.574-9.575c-0.216-0.216-0.515-0.35-0.845-0.35-0.66 0-1.196 0.535-1.196 1.196 0 0.33 0.134 0.629 0.35 0.846v0l9.569 9.579c-0.226 0.452-0.359 0.984-0.359 1.548 0 1.128 0.531 2.132 1.356 2.775l0.008 0.006-6.905 21.887c-13.646-5.027-20.633-20.164-15.607-33.81 5.027-13.644 20.165-20.633 33.81-15.607s20.633 20.165 15.607 33.81c-2.522 6.715-7.507 12.011-13.827 14.883l-0.165 0.067-0.746-3.515c-0.119-0.545-0.597-0.947-1.169-0.947-0.306 0-0.585 0.115-0.797 0.304l0.001-0.001-7.194 6.423c-0.247 0.22-0.402 0.539-0.402 0.894 0 0.531 0.347 0.982 0.826 1.137l0.008 0.002 9.185 2.932c0.11 0.037 0.236 0.058 0.367 0.058 0.66 0 1.195-0.535 1.195-1.195 0-0.088-0.010-0.175-0.028-0.258l0.001 0.008-0.733-3.448c10.364-4.452 17.491-14.572 17.491-26.356 0-0.021 0-0.043-0-0.064v0.003zM29.985 27.494c0.661 0 1.196 0.536 1.196 1.196s-0.536 1.196-1.196 1.196v0c-0.661 0-1.196-0.536-1.196-1.196s0.536-1.196 1.196-1.196v0zM33.923 55.364l4.095-3.653 1.131 5.325-5.226-1.672z"></path>
<path fill="#4d5ae5" style="fill: var(--color2, #4d5ae5)" d="M28.79 5.972v2.391c0 0.66 0.535 1.195 1.195 1.195s1.195-0.535 1.195-1.195v-2.391c-0.026-0.64-0.551-1.149-1.195-1.149s-1.169 0.509-1.195 1.147l-0 0.002zM7.268 27.494c-0.66 0-1.195 0.535-1.195 1.195s0.535 1.195 1.195 1.195h2.391c0.66 0 1.195-0.535 1.195-1.195s-0.535-1.195-1.195-1.195h-2.391zM52.703 29.886c0.66 0 1.195-0.535 1.195-1.195s-0.535-1.195-1.195-1.195h-2.391c-0.64 0.026-1.149 0.551-1.149 1.195s0.509 1.169 1.147 1.195l0.002 0h2.391z"></path>
</symbol>

<symbol id="icon-diagram" viewBox="0 0 60 60">
<path fill="#4d5ae5" style="fill: var(--color2, #4d5ae5)" d="M27.985 28.059h1.999v8.994h-1.999v-8.994zM35.981 32.057h1.999v4.997h-1.999v-4.997zM19.989 35.055h1.999v1.999h-1.999v-1.999zM13.992 34.056h2v2.998h-2v-2.998z"></path>
<path fill="#2e2f42" style="fill: var(--color1, #2e2f42)" d="M2.998 53.046h47.975c0 0 0.001 0 0.001 0 1.656 0 2.998-1.342 2.998-2.998v0-3.998c0-1.656-1.342-2.998-2.998-2.998-0 0-0.001 0-0.001 0h-0.999v-24.925l5.677-5.378c0.389 0.196 0.848 0.311 1.333 0.311 1.665 0 3.015-1.35 3.015-3.015s-1.35-3.015-3.015-3.015c-1.665 0-3.015 1.35-3.015 3.015 0 0.462 0.104 0.9 0.29 1.292l-0.008-0.018-4.278 4.055v-2.306c0-1.656-1.342-2.998-2.998-2.998v0h-39.979c-0 0-0.001 0-0.001 0-1.656 0-2.998 1.342-2.998 2.998 0 0 0 0.001 0 0.001v-0 29.983h-0.999c-1.656 0-2.998 1.342-2.998 2.998 0 0 0 0.001 0 0.001v-0 3.998c0 1.656 1.342 2.998 2.998 2.998v0zM56.97 9.068c0.552 0 1 0.448 1 1s-0.448 1-1 1v0c-0.552 0-1-0.448-1-1s0.448-1 1-1v0zM5.997 13.067c0-0.553 0.447-1 0.999-1h39.979c0.552 0 0.999 0.448 0.999 1v4.197l-1.999 1.899v-4.098c0-0.552-0.447-0.999-0.999-0.999h-35.981c-0.552 0-0.999 0.447-0.999 0.999v24.986c0 0.553 0.447 1 0.999 1h35.981c0.552 0 0.999-0.448 0.999-1v-18.139l1.999-1.894v23.031h-41.978v-29.983zM14.993 26.060c-0.003 0-0.005 0-0.008 0-1.656 0-2.998 1.342-2.998 2.998s1.342 2.998 2.998 2.998c0.81 0 1.545-0.321 2.085-0.844l-0.001 0.001 3.474 1.744c0.403 0.202 0.893 0.107 1.193-0.231l7.385-8.309 7.26 5.44c0.39 0.292 0.934 0.261 1.286-0.074l6.309-5.977v15.246h-33.981v-22.988h33.983v4.987l-7.072 6.698-7.322-5.489c-0.165-0.124-0.373-0.199-0.599-0.199-0.296 0-0.563 0.129-0.746 0.334l-0.001 0.001-7.487 8.423-2.799-1.4c0.021-0.12 0.034-0.241 0.038-0.363-0.001-1.656-1.342-2.998-2.998-2.998h-0zM15.992 29.058c0 0.552-0.448 1-1 1s-1-0.448-1-1v0c0-0.552 0.448-1 1-1s1 0.448 1 1v0zM21.988 45.050h9.995v0.999c0 0.552-0.447 0.999-0.999 0.999h-7.996c-0.552 0-0.999-0.447-0.999-0.999v0-0.999zM1.999 46.050c0-0.552 0.448-0.999 0.999-0.999h16.991v0.999c0 0 0 0.001 0 0.001 0 1.656 1.342 2.998 2.998 2.998h7.997c1.656 0 2.998-1.342 2.998-2.998 0-0 0-0.001 0-0.001v0-0.999h16.989c0.553 0 1 0.447 1 0.999v3.998c0 0.551-0.448 0.999-1 0.999h-47.974c-0.552 0-0.999-0.447-0.999-0.999v0-3.998z"></path>
</symbol>

<symbol id="icon-astronaut" viewBox="0 0 60 60">
<path fill="#4d5ae5" style="fill: var(--color2, #4d5ae5)" d="M59.951 8.482c-0.12-0.358-0.426-0.622-0.801-0.679l-0.006-0.001-3.583-0.521-1.603-3.246c-0.336-0.684-1.456-0.684-1.792 0l-1.603 3.246-3.581 0.521c-0.487 0.073-0.856 0.488-0.856 0.99 0 0.28 0.115 0.534 0.301 0.715l2.592 2.527-0.612 3.568c-0.064 0.375 0.090 0.754 0.398 0.978 0.311 0.226 0.717 0.254 1.054 0.076l3.204-1.685 3.203 1.685c0.135 0.072 0.294 0.114 0.464 0.114 0.553 0 1.001-0.448 1.001-1.001 0-0.059-0.005-0.116-0.015-0.172l0.001 0.006-0.611-3.568 2.593-2.527c0.186-0.182 0.302-0.436 0.302-0.717 0-0.11-0.018-0.216-0.051-0.316l0.002 0.007zM55.333 10.971c-0.234 0.229-0.343 0.561-0.287 0.885l0.358 2.089-1.876-0.985c-0.135-0.073-0.295-0.115-0.466-0.115s-0.331 0.043-0.471 0.118l0.005-0.003-1.876 0.985 0.357-2.089c0.009-0.051 0.014-0.109 0.014-0.169 0-0.28-0.115-0.534-0.301-0.716l-1.519-1.48 2.098-0.305c0.326-0.047 0.607-0.252 0.753-0.547l0.938-1.899 0.939 1.899c0.146 0.295 0.428 0.501 0.754 0.547l2.097 0.305-1.517 1.48zM49 38.479h-2.001v2.001h2.001v-2.001zM49 42.479h-2.001v2.001h2.001v-2.002z"></path>
<path fill="#4d5ae5" style="fill: var(--color2, #4d5ae5)" d="M51 40.479h-2v2h2v-2zM47.001 40.479h-2.001v2h2.001v-2zM42 49.479h-2v2h2v-2zM42 53.48h-2v2h2v-2zM44.001 51.479h-2.001v2.001h2.001v-2.002z"></path>
<path fill="#4d5ae5" style="fill: var(--color2, #4d5ae5)" d="M40 51.479h-2.001v2.001h2.001v-2.002zM30 45.479h-2v2.001h2v-2.002zM30 49.479h-2v2h2v-2zM32 47.48h-2v2h2v-2zM28 47.48h-2.001v2h2.001v-2zM11 11.479h-2v2h2v-2zM11 15.478h-2v2.001h2v-2zM12.999 13.478h-2v2.001h2v-2.001zM9 13.478h-2.001v2.001h2.001v-2.001z"></path>
<path fill="#2e2f42" style="fill: var(--color1, #2e2f42)" d="M46.341 26.549c-0.525-0.706-1.31-1.193-2.211-1.32l-0.018-0.002c-0.143-0.022-0.308-0.034-0.476-0.034-0.77 0-1.48 0.262-2.044 0.701l0.008-0.006-2.347 1.799-3.559 2.658-2.545-1.014c4.539-2.036 7.713-6.577 7.713-11.85 0-7.168-5.855-12.999-13.052-12.999s-13.053 5.831-13.053 12.999c0 2.598 0.776 5.014 2.1 7.047l-5.192-0.045c-0.016 0-0.028 0.008-0.044 0.009-0.098 0.004-0.196 0.023-0.291 0.057-0.024 0.009-0.049 0.014-0.072 0.025-0.012 0.005-0.023 0.006-0.036 0.012l-6.064 2.993-3.55 1.708c-0.045 0.020-0.084 0.042-0.121 0.067l0.003-0.002c-0.903 0.607-1.489 1.624-1.489 2.779 0 0.556 0.136 1.081 0.377 1.542l-0.009-0.018c0.412 0.804 1.116 1.397 1.98 1.668 0.301 0.099 0.647 0.156 1.007 0.156 0.578 0 1.121-0.147 1.595-0.405l-0.017 0.009 2.602-1.384 4.245-2.193 2.544-0.014-10.204 10.153c0 0.002-0.002 0.002-0.003 0.003l-2.51 2.499c-0.567 0.561-0.919 1.339-0.919 2.199 0 0.003 0 0.007 0 0.010v-0.001c0 0.834 0.325 1.619 0.919 2.21 0.609 0.607 1.41 0.909 2.211 0.909 0.802 0 1.602-0.303 2.212-0.909l2.465-2.453 3.263-2.438 1.689 1.682-5.816 5.791c-0.567 0.561-0.919 1.339-0.919 2.199 0 0.003 0 0.006 0 0.009v-0c0 0.834 0.326 1.619 0.919 2.211 0.609 0.606 1.411 0.909 2.212 0.909s1.603-0.304 2.213-0.909l6.529-6.5c0-0.002 0-0.003 0.002-0.004l1.893-1.875-0.008-0.007c0.012-0.012 0.029-0.016 0.041-0.029l9.686-10.609 6.508 0.925c0.038 0.005 0.082 0.008 0.127 0.008 0.132 0 0.257-0.026 0.372-0.072l-0.007 0.002c0.033-0.012 0.062-0.028 0.094-0.044 0.036-0.018 0.073-0.028 0.107-0.051l6.025-4c0.023-0.015 0.034-0.038 0.055-0.055 0.023-0.019 0.053-0.026 0.075-0.047l2.385-2.234c0.651-0.61 1.057-1.476 1.057-2.436 0-0.751-0.248-1.443-0.666-2.001l0.006 0.009zM3.994 33.319c-0.324 0.174-0.694 0.209-1.046 0.097-0.553-0.174-0.946-0.682-0.946-1.281 0-0.442 0.214-0.834 0.544-1.079l0.004-0.003 2.464-1.185 0.592 1.733 0.249 0.728-1.861 0.989zM10.552 29.892l-2.903 1.5-0.478-1.401-0.344-1.006 3.8-1.875-0.074 2.782zM38.863 17.479c0 1.722-0.411 3.347-1.123 4.799l-7.84-3.561c-0.081-1.079-0.642-2.011-1.467-2.595l-0.011-0.007 2.745-9.112c4.458 1.417 7.696 5.575 7.696 10.476zM16.759 17.479c0-6.066 4.958-11.001 11.052-11.001 0.474 0 0.938 0.040 1.397 0.098l-2.685 8.913c-0.036 0-0.070-0.010-0.107-0.010-0 0-0.001 0-0.001 0-1.935 0-3.504 1.566-3.51 3.499v0.001c0.006 1.934 1.575 3.5 3.51 3.5 0 0 0.001 0 0.001 0h-0c1.302 0 2.427-0.718 3.034-1.771l7.242 3.291c-2.016 2.712-5.241 4.481-8.881 4.481-6.094 0-11.052-4.936-11.052-11.001zM27.927 18.979c0 0.827-0.679 1.5-1.511 1.5-0.001 0-0.002 0-0.004 0-0.83 0-1.503-0.671-1.508-1.5v-0c0-0.827 0.678-1.5 1.511-1.5s1.511 0.673 1.511 1.5zM4.621 47.149c-0.206 0.203-0.489 0.329-0.802 0.329s-0.594-0.125-0.8-0.327l0 0c-0.204-0.202-0.331-0.482-0.331-0.792s0.127-0.59 0.331-0.792l0-0 1.804-1.797 1.596 1.589-1.797 1.791zM10.647 54.149c-0.206 0.204-0.489 0.33-0.803 0.33s-0.595-0.125-0.801-0.329l0 0c-0.204-0.202-0.33-0.482-0.33-0.792s0.126-0.59 0.33-0.792l0-0 1.806-1.798 1.597 1.589-1.799 1.791zM17.176 47.646l-0.004 0.002-3.309 3.3-1.597-1.589 3.307-3.293s0.002 0 0.003-0.002c0.075-0.075 0.122-0.165 0.169-0.253 0.012-0.026 0.037-0.049 0.049-0.075 0.031-0.078 0.036-0.16 0.047-0.242 0.007-0.046 0.026-0.089 0.026-0.136 0-0.067-0.023-0.131-0.037-0.198-0.012-0.060-0.012-0.122-0.035-0.179-0.037-0.094-0.103-0.177-0.172-0.258-0.019-0.023-0.025-0.051-0.047-0.071h-0.001l-0.002-0.004-3.013-3c-0.032-0.032-0.073-0.045-0.109-0.072-0.048-0.039-0.101-0.075-0.158-0.105l-0.005-0.003c-0.050-0.024-0.108-0.045-0.169-0.060l-0.006-0.001c-0.056-0.018-0.122-0.031-0.189-0.037l-0.004-0c-0.011-0-0.025-0.001-0.038-0.001-0.049 0-0.098 0.004-0.145 0.011l0.005-0.001c-0.073 0.007-0.139 0.020-0.203 0.039l0.007-0.002c-0.068 0.024-0.126 0.053-0.18 0.087l0.004-0.002c-0.037 0.021-0.080 0.028-0.114 0.053l-3.325 2.483-1.688-1.682 4.498-4.475 8.175 8.042-1.738 1.723zM29.961 34.489c-0.028-0.004-0.056 0.008-0.084 0.006-0.015-0.001-0.032-0.001-0.049-0.001-0.059 0-0.117 0.005-0.173 0.015l0.006-0.001c-0.131 0.020-0.248 0.065-0.351 0.13l0.004-0.002c-0.056 0.034-0.107 0.070-0.156 0.115-0.024 0.021-0.053 0.031-0.075 0.054l-8.81 9.649-8.115-7.982 5.312-5.284c0.181-0.181 0.292-0.431 0.292-0.707 0-0.553-0.448-1.001-1.001-1.001-0.001 0-0.002 0-0.003 0h0l-4.16 0.024 0.052-3.014 5.82 0.050c2.369 2.431 5.676 3.939 9.334 3.939 0.002 0 0.004 0 0.006 0h-0c0.82 0 1.62-0.084 2.399-0.23 0.075 0.060 0.149 0.121 0.244 0.159l4.517 1.8 0.286 1.421 0.335 1.659-5.631-0.801zM37.538 34.823l-0.588-2.921 2.712-2.025 1.776 2.356-3.9 2.59zM44.576 29.515l-1.571 1.472-1.746-2.318 1.559-1.194c0.291-0.225 0.657-0.315 1.017-0.268 0.363 0.051 0.683 0.24 0.9 0.532 0.407 0.547 0.337 1.311-0.159 1.777z"></path>
<path fill="#2e2f42" style="fill: var(--color1, #2e2f42)" d="M25.504 34.77l-4.018-4c-0.181-0.18-0.43-0.292-0.705-0.292s-0.525 0.111-0.705 0.292l-4.017 4c-0.181 0.182-0.293 0.432-0.293 0.709s0.112 0.528 0.293 0.709l-0-0 4.017 3.999c0.181 0.18 0.43 0.292 0.705 0.292s0.525-0.111 0.705-0.292l4.018-3.999c0.182-0.181 0.295-0.432 0.295-0.709s-0.113-0.528-0.295-0.709l-0-0zM20.781 38.068l-2.6-2.589 2.6-2.588 2.602 2.588-2.602 2.589zM32.183 9.508l-0.483 1.942c0.133 0.033 3.258 0.848 3.258 4.029h2.001c0-3.782-3.123-5.56-4.775-5.972zM36.958 17.479h-2v2.001h2v-2.001z"></path>
</symbol>

<symbol id="icon-email" viewBox="0 0 15 20">
<path d="M12.5 5h-10c-0.688 0-1.243 0.563-1.243 1.25l-0.007 7.5c0 0.688 0.563 1.25 1.25 1.25h10c0.688 0 1.25-0.563 1.25-1.25v-7.5c0-0.688-0.563-1.25-1.25-1.25zM12.25 7.657l-4.418 2.762c-0.094 0.059-0.209 0.094-0.332 0.094s-0.237-0.035-0.334-0.095l0.003 0.002-4.418-2.762c-0.157-0.094-0.261-0.263-0.261-0.457 0-0.293 0.238-0.531 0.531-0.531 0.109 0 0.21 0.033 0.295 0.089l4.186 2.617 4.188-2.619c0.082-0.055 0.184-0.088 0.293-0.088 0.293 0 0.531 0.238 0.531 0.531 0 0.194-0.104 0.363-0.259 0.456l-0.002 0.001z"></path>
</symbol>
<symbol id="icon-phone" viewBox="0 0 15 20">
<path d="M12.272 11.554l-1.532-0.175c-0.042-0.005-0.090-0.008-0.139-0.008-0.332 0-0.632 0.135-0.85 0.352l-1.109 1.109c-1.72-0.887-3.087-2.254-3.951-3.924l-0.024-0.051 1.117-1.116c0.217-0.217 0.352-0.517 0.352-0.849 0-0.049-0.003-0.098-0.009-0.146l0.001 0.006-0.175-1.52c-0.072-0.604-0.581-1.067-1.199-1.067-0 0-0.001 0-0.001 0h-1.043c-0.682 0-1.248 0.567-1.206 1.248 0.319 5.15 4.438 9.263 9.583 9.583 0.682 0.042 1.248-0.525 1.248-1.207v-1.043c0-0.002 0-0.004 0-0.007 0-0.613-0.462-1.118-1.056-1.187l-0.006-0.001z"></path>
</symbol>
<symbol id="icon-person" viewBox="0 0 20 20">
<path d="M10 10c1.841 0 3.333-1.492 3.333-3.333s-1.492-3.333-3.333-3.333v0c-1.841 0-3.333 1.492-3.333 3.333s1.492 3.333 3.333 3.333v0zM10 11.667c-2.226 0-6.667 1.117-6.667 3.333v0.833c0 0.458 0.374 0.833 0.833 0.833h11.667c0.458 0 0.833-0.376 0.833-0.833v-0.833c0-2.217-4.442-3.333-6.667-3.333z"></path>
</symbol>
<symbol id="icon-frame" viewBox="0 0 20 20">
<path d="M20 1.667l-20 9.375 6.392 1.972 9.858-7.702-7.498 8.43 0.006 0.003-0.008-0.003v4.591l3.584-3.485 4.542 1.402 3.124-14.583z"></path>
</symbol>

<symbol id="icon-close" viewBox="0 0 8 8">
<path d="M8 0.806l-0.806-0.806-3.194 3.194-3.194-3.194-0.806 0.806 3.194 3.194-3.194 3.194 0.806 0.806 3.194-3.194 3.194 3.194 0.806-0.806-3.194-3.194 3.194-3.194z"></path>
</symbol>

<symbol id="icon-vector" viewBox="0 0 25 20">
<path d="M21.115 0.637c0.412-0.398 0.974-0.644 1.593-0.644 1.254 0 2.273 1.007 2.292 2.257l0 0.002c0 0.018 0.001 0.038 0.001 0.059 0 0.603-0.23 1.152-0.607 1.565l0.002-0.002-12.235 15.385c-0.421 0.455-1.022 0.739-1.689 0.739-0.309 0-0.604-0.061-0.874-0.172l0.015 0.006c-0.298-0.123-0.552-0.296-0.765-0.51l-0-0-8.115-8.157c-0.453-0.423-0.735-1.024-0.735-1.691 0-0.313 0.062-0.612 0.175-0.885l-0.006 0.015c0.352-0.855 1.179-1.445 2.144-1.445 0.011 0 0.022 0 0.033 0l-0.002-0c0.649 0.012 1.23 0.292 1.639 0.734l0.001 0.001 6.422 6.455 10.65-13.645c0.020-0.024 0.041-0.046 0.062-0.067l-0.002-0z"></path>
</symbol>

<symbol id="icon-burger" viewBox="0 0 32 22">
<path stroke="#2E2F42" stroke-linecap="round" stroke-linejoin="round" stroke-width="3" d="M1.348 20.043h29.538M1.348 10.735h29.538M1.348 1.428h29.538"/>
</symbol>

</defs>
</svg>
