<svg aria-hidden="true" style="position: absolute; width: 0; height: 0; overflow: hidden;" version="1.1" xmlns="http://www.w3.org/2000/svg" xmlns:xlink="http://www.w3.org/1999/xlink">
<defs>

<symbol id="icon-antenna" viewBox="0 0 60 60">
<path fill="#2e2f42" style="fill: var(--color1, #2e2f42)" d="M57.699 41.433l-15.831-15.947 1.757-8.653c0.454 0.176 0.936 0.269 1.422 0.272h0.012c0.014 0 0.031 0 0.048 0 2.236 0 4.048-1.812 4.048-4.048s-1.812-4.048-4.048-4.048c-2.236 0-4.048 1.812-4.048 4.048 0 0.487 0.086 0.953 0.243 1.385l-0.009-0.028-9.3 1.134-15.171-15.248c-0.18-0.183-0.429-0.298-0.706-0.3h-0c-0.263 0.001-0.514 0.106-0.7 0.291l-2.836 2.82c-0.181 0.181-0.293 0.431-0.293 0.707s0.112 0.526 0.293 0.707v0l1.526 1.547c-2.143 3.867-3.404 8.479-3.404 13.385 0 7.698 3.105 14.672 8.131 19.736l-0.002-0.002c0.079 0.076 0.172 0.138 0.273 0.183-0.060 0.307-0.095 0.662-0.097 1.024v11.603h-12c-2.761 0.003-4.998 2.239-5.002 4.999v2c0 0.553 0.448 1 1 1h46c0.552 0 1-0.448 1-1v-2c-0.004-2.76-2.24-4.996-5-5h-12v-5.141c1.88 0.394 3.795 0.595 5.716 0.6 4.837-0.005 9.384-1.243 13.345-3.417l-0.145 0.073 1.535 1.543c0.186 0.189 0.44 0.298 0.706 0.3 0.263-0.002 0.514-0.106 0.699-0.291l2.836-2.821c0.181-0.181 0.293-0.431 0.293-0.707s-0.112-0.526-0.293-0.707v0zM43.65 11.687c0.361-0.359 0.86-0.581 1.41-0.581 1.104 0 2 0.895 2 2s-0.895 2-2 2c-0 0-0 0-0 0h-0.006c-1.1-0.006-1.99-0.899-1.99-2 0-0.554 0.226-1.056 0.59-1.418l0-0h-0.004zM41.296 18.259l-1.122 5.522-2.204-2.216 3.326-3.307zM40.16 16.567l-3.6 3.578-2.784-2.8 6.384-0.778zM45.008 54c1.657 0 3 1.343 3 3v0 1h-44v-1c0-1.657 1.343-3 3-3h38zM31.008 50v2.001h-10v-2.001h10zM21.008 48v-7.6c0-2.425 2.243-4.4 5-4.4s5.001 1.974 5.001 4.4v7.6h-10zM33.008 44.82v-4.42c0-3.529-3.141-6.399-6.999-6.399-0.033-0.001-0.072-0.001-0.11-0.001-2.536 0-4.763 1.325-6.025 3.32l-0.017 0.029c-4.424-4.653-7.146-10.961-7.146-17.905 0-4.339 1.063-8.43 2.942-12.026l-0.068 0.143 34.879 35.078c-3.417 1.775-7.462 2.816-11.749 2.816-2.023 0-3.991-0.232-5.88-0.67l0.175 0.034zM54.174 43.538l-39.482-39.713 1.416-1.41 14.878 14.963c0.007 0 0.010 0.012 0.018 0.018l24.59 24.733-1.419 1.41z"></path>
<path fill="#4d5ae5" style="fill: var(--color2, #4d5ae5)" d="M26.017 38h-0.009c-0.001 0-0.003 0-0.005 0-1.657 0-3 1.343-3 3 0 1.655 1.34 2.997 2.995 3h0.010c0.001 0 0.003 0 0.005 0 1.657 0 3-1.343 3-3 0-1.655-1.34-2.997-2.995-3h-0zM26.717 41.709c-0.181 0.179-0.429 0.29-0.704 0.29-0.552 0-1-0.448-1-1 0-0.001 0-0.003 0-0.004v0c0.004-0.548 0.447-0.991 0.994-0.995h0c0.55 0.003 0.995 0.45 0.995 1 0 0.277-0.113 0.528-0.294 0.709l-0 0h0.009z"></path>
</symbol>

<symbol id="icon-clock" viewBox="0 0 60 60">
<path fill="#2e2f42" style="fill: var(--color1, #2e2f42)" d="M58.681 28.689c-0.003-15.848-12.853-28.692-28.703-28.689-15.848 0.003-28.692 12.853-28.689 28.703 0.003 12.727 8.292 23.518 19.765 27.273l0.203 0.057c0.113 0.036 0.232 0.054 0.35 0.053 0.227 0 0.448-0.061 0.642-0.175 0.253-0.15 0.443-0.388 0.532-0.668l7.247-22.969c1.975-0.007 3.574-1.61 3.574-3.587 0-1.981-1.606-3.587-3.587-3.587-0.568 0-1.106 0.132-1.583 0.367l0.021-0.009-9.574-9.575c-0.216-0.216-0.515-0.35-0.845-0.35-0.66 0-1.196 0.535-1.196 1.196 0 0.33 0.134 0.629 0.35 0.846v0l9.569 9.579c-0.226 0.452-0.359 0.984-0.359 1.548 0 1.128 0.531 2.132 1.356 2.775l0.008 0.006-6.905 21.887c-13.646-5.027-20.633-20.164-15.607-33.81 5.027-13.644 20.165-20.633 33.81-15.607s20.633 20.165 15.607 33.81c-2.522 6.715-7.507 12.011-13.827 14.883l-0.165 0.067-0.746-3.515c-0.119-0.545-0.597-0.947-1.169-0.947-0.306 0-0.585 0.115-0.797 0.304l0.001-0.001-7.194 6.423c-0.247 0.22-0.402 0.539-0.402 0.894 0 0.531 0.347 0.982 0.826 1.137l0.008 0.002 9.185 2.932c0.11 0.037 0.236 0.058 0.367 0.058 0.66 0 1.195-0.535 1.195-1.195 0-0.088-0.010-0.175-0.028-0.258l0.001 0.008-0.733-3.448c10.364-4.452 17.491-14.572 17.491-26.356 0-0.021 0-0.043-0-0.064v0.003zM29.985 27.494c0.661 0 1.196 0.536 1.196 1.196s-0.536 1.196-1.196 1.196v0c-0.661 0-1.196-0.536-1.196-1.196s0.536-1.196 1.196-1.196v0zM33.923 55.364l4.095-3.653 1.131 5.325-5.226-1.672z"></path>
<path fill="#4d5ae5" style="fill: var(--color2, #4d5ae5)" d="M28.79 5.972v2.391c0 0.66 0.535 1.195 1.195 1.195s1.195-0.535 1.195-1.195v-2.391c-0.026-0.64-0.551-1.149-1.195-1.149s-1.169 0.509-1.195 1.147l-0 0.002zM7.268 27.494c-0.66 0-1.195 0.535-1.195 1.195s0.535 1.195 1.195 1.195h2.391c0.66 0 1.195-0.535 1.195-1.195s-0.535-1.195-1.195-1.195h-2.391zM52.703 29.886c0.66 0 1.195-0.535 1.195-1.195s-0.535-1.195-1.195-1.195h-2.391c-0.64 0.026-1.149 0.551-1.149 1.195s0.509 1.169 1.147 1.195l0.002 0h2.391z"></path>
</symbol>

<symbol id="icon-diagram" viewBox="0 0 60 60">
<path fill="#4d5ae5" style="fill: var(--color2, #4d5ae5)" d="M27.985 28.059h1.999v8.994h-1.999v-8.994zM35.981 32.057h1.999v4.997h-1.999v-4.997zM19.989 35.055h1.999v1.999h-1.999v-1.999zM13.992 34.056h2v2.998h-2v-2.998z"></path>
<path fill="#2e2f42" style="fill: var(--color1, #2e2f42)" d="M2.998 53.046h47.975c0 0 0.001 0 0.001 0 1.656 0 2.998-1.342 2.998-2.998v0-3.998c0-1.656-1.342-2.998-2.998-2.998-0 0-0.001 0-0.001 0h-0.999v-24.925l5.677-5.378c0.389 0.196 0.848 0.311 1.333 0.311 1.665 0 3.015-1.35 3.015-3.015s-1.35-3.015-3.015-3.015c-1.665 0-3.015 1.35-3.015 3.015 0 0.462 0.104 0.9 0.29 1.292l-0.008-0.018-4.278 4.055v-2.306c0-1.656-1.342-2.998-2.998-2.998v0h-39.979c-0 0-0.001 0-0.001 0-1.656 0-2.998 1.342-2.998 2.998 0 0 0 0.001 0 0.001v-0 29.983h-0.999c-1.656 0-2.998 1.342-2.998 2.998 0 0 0 0.001 0 0.001v-0 3.998c0 1.656 1.342 2.998 2.998 2.998v0zM56.97 9.068c0.552 0 1 0.448 1 1s-0.448 1-1 1v0c-0.552 0-1-0.448-1-1s0.448-1 1-1v0zM5.997 13.067c0-0.553 0.447-1 0.999-1h39.979c0.552 0 0.999 0.448 0.999 1v4.197l-1.999 1.899v-4.098c0-0.552-0.447-0.999-0.999-0.999h-35.981c-0.552 0-0.999 0.447-0.999 0.999v24.986c0 0.553 0.447 1 0.999 1h35.981c0.552 0 0.999-0.448 0.999-1v-18.139l1.999-1.894v23.031h-41.978v-29.983zM14.993 26.060c-0.003 0-0.005 0-0.008 0-1.656 0-2.998 1.342-2.998 2.998s1.342 2.998 2.998 2.998c0.81 0 1.545-0.321 2.085-0.844l-0.001 0.001 3.474 1.744c0.403 0.202 0.893 0.107 1.193-0.231l7.385-8.309 7.26 5.44c0.39 0.292 0.934 0.261 1.286-0.074l6.309-5.977v15.246h-33.981v-22.988h33.983v4.987l-7.072 6.698-7.322-5.489c-0.165-0.124-0.373-0.199-0.599-0.199-0.296 0-0.563 0.129-0.746 0.334l-0.001 0.001-7.487 8.423-2.799-1.4c0.021-0.12 0.034-0.241 0.038-0.363-0.001-1.656-1.342-2.998-2.998-2.998h-0zM15.992 29.058c0 0.552-0.448 1-1 1s-1-0.448-1-1v0c0-0.552 0.448-1 1-1s1 0.448 1 1v0zM21.988 45.050h9.995v0.999c0 0.552-0.447 0.999-0.999 0.999h-7.996c-0.552 0-0.999-0.447-0.999-0.999v0-0.999zM1.999 46.050c0-0.552 0.448-0.999 0.999-0.999h16.991v0.999c0 0 0 0.001 0 0.001 0 1.656 1.342 2.998 2.998 2.998h7.997c1.656 0 2.998-1.342 2.998-2.998 0-0 0-0.001 0-0.001v0-0.999h16.989c0.553 0 1 0.447 1 0.999v3.998c0 0.551-0.448 0.999-1 0.999h-47.974c-0.552 0-0.999-0.447-0.999-0.999v0-3.998z"></path>
</symbol>

<symbol id="icon-astronaut" viewBox="0 0 60 60">
<path fill="#4d5ae5" style="fill: var(--color2, #4d5ae5)" d="M59.951 8.482c-0.12-0.358-0.426-0.622-0.801-0.679l-0.006-0.001-3.583-0.521-1.603-3.246c-0.336-0.684-1.456-0.684-1.792 0l-1.603 3.246-3.581 0.521c-0.487 0.073-0.856 0.488-0.856 0.99 0 0.28 0.115 0.534 0.301 0.715l2.592 2.527-0.612 3.568c-0.064 0.375 0.090 0.754 0.398 0.978 0.311 0.226 0.717 0.254 1.054 0.076l3.204-1.685 3.203 1.685c0.135 0.072 0.294 0.114 0.464 0.114 0.553 0 1.001-0.448 1.001-1.001 0-0.059-0.005-0.116-0.015-0.172l0.001 0.006-0.611-3.568 2.593-2.527c0.186-0.182 0.302-0.436 0.302-0.717 0-0.11-0.018-0.216-0.051-0.316l0.002 0.007zM55.333 10.971c-0.234 0.229-0.343 0.561-0.287 0.885l0.358 2.089-1.876-0.985c-0.135-0.073-0.295-0.115-0.466-0.115s-0.331 0.043-0.471 0.118l0.005-0.003-1.876 0.985 0.357-2.089c0.009-0.051 0.014-0.109 0.014-0.169 0-0.28-0.115-0.534-0.301-0.716l-1.519-1.48 2.098-0.305c0.326-0.047 0.607-0.252 0.753-0.547l0.938-1.899 0.939 1.899c0.146 0.295 0.428 0.501 0.754 0.547l2.097 0.305-1.517 1.48zM49 38.479h-2.001v2.001h2.001v-2.001zM49 42.479h-2.001v2.001h2.001v-2.002z"></path>
<path fill="#4d5ae5" style="fill: var(--color2, #4d5ae5)" d="M51 40.479h-2v2h2v-2zM47.001 40.479h-2.001v2h2.001v-2zM42 49.479h-2v2h2v-2zM42 53.48h-2v2h2v-2zM44.001 51.479h-2.001v2.001h2.001v-2.002z"></path>
<path fill="#4d5ae5" style="fill: var(--color2, #4d5ae5)" d="M40 51.479h-2.001v2.001h2.001v-2.002zM30 45.479h-2v2.001h2v-2.002zM30 49.479h-2v2h2v-2zM32 47.48h-2v2h2v-2zM28 47.48h-2.001v2h2.001v-2zM11 11.479h-2v2h2v-2zM11 15.478h-2v2.001h2v-2zM12.999 13.478h-2v2.001h2v-2.001zM9 13.478h-2.001v2.001h2.001v-2.001z"></path>
<path fill="#2e2f42" style="fill: var(--color1, #2e2f42)" d="M46.341 26.549c-0.525-0.706-1.31-1.193-2.211-1.32l-0.018-0.002c-0.143-0.022-0.308-0.034-0.476-0.034-0.77 0-1.48 0.262-2.044 0.701l0.008-0.006-2.347 1.799-3.559 2.658-2.545-1.014c4.539-2.036 7.713-6.577 7.713-11.85 0-7.168-5.855-12.999-13.052-12.999s-13.053 5.831-13.053 12.999c0 2.598 0.776 5.014 2.1 7.047l-5.192-0.045c-0.016 0-0.028 0.008-0.044 0.009-0.098 0.004-0.196 0.023-0.291 0.057-0.024 0.009-0.049 0.014-0.072 0.025-0.012 0.005-0.023 0.006-0.036 0.012l-6.064 2.993-3.55 1.708c-0.045 0.020-0.084 0.042-0.121 0.067l0.003-0.002c-0.903 0.607-1.489 1.624-1.489 2.779 0 0.556 0.136 1.081 0.377 1.542l-0.009-0.018c0.412 0.804 1.116 1.397 1.98 1.668 0.301 0.099 0.647 0.156 1.007 0.156 0.578 0 1.121-0.147 1.595-0.405l-0.017 0.009 2.602-1.384 4.245-2.193 2.544-0.014-10.204 10.153c0 0.002-0.002 0.002-0.003 0.003l-2.51 2.499c-0.567 0.561-0.919 1.339-0.919 2.199 0 0.003 0 0.007 0 0.010v-0.001c0 0.834 0.325 1.619 0.919 2.21 0.609 0.607 1.41 0.909 2.211 0.909 0.802 0 1.602-0.303 2.212-0.909l2.465-2.453 3.263-2.438 1.689 1.682-5.816 5.791c-0.567 0.561-0.919 1.339-0.919 2.199 0 0.003 0 0.006 0 0.009v-0c0 0.834 0.326 1.619 0.919 2.211 0.609 0.606 1.411 0.909 2.212 0.909s1.603-0.304 2.213-0.909l6.529-6.5c0-0.002 0-0.003 0.002-0.004l1.893-1.875-0.008-0.007c0.012-0.012 0.029-0.016 0.041-0.029l9.686-10.609 6.508 0.925c0.038 0.005 0.082 0.008 0.127 0.008 0.132 0 0.257-0.026 0.372-0.072l-0.007 0.002c0.033-0.012 0.062-0.028 0.094-0.044 0.036-0.018 0.073-0.028 0.107-0.051l6.025-4c0.023-0.015 0.034-0.038 0.055-0.055 0.023-0.019 0.053-0.026 0.075-0.047l2.385-2.234c0.651-0.61 1.057-1.476 1.057-2.436 0-0.751-0.248-1.443-0.666-2.001l0.006 0.009zM3.994 33.319c-0.324 0.174-0.694 0.209-1.046 0.097-0.553-0.174-0.946-0.682-0.946-1.281 0-0.442 0.214-0.834 0.544-1.079l0.004-0.003 2.464-1.185 0.592 1.733 0.249 0.728-1.861 0.989zM10.552 29.892l-2.903 1.5-0.478-1.401-0.344-1.006 3.8-1.875-0.074 2.782zM38.863 17.479c0 1.722-0.411 3.347-1.123 4.799l-7.84-3.561c-0.081-1.079-0.642-2.011-1.467-2.595l-0.011-0.007 2.745-9.112c4.458 1.417 7.696 5.575 7.696 10.476zM16.759 17.479c0-6.066 4.958-11.001 11.052-11.001 0.474 0 0.938 0.040 1.397 0.098l-2.685 8.913c-0.036 0-0.070-0.010-0.107-0.010-0 0-0.001 0-0.001 0-1.935 0-3.504 1.566-3.51 3.499v0.001c0.006 1.934 1.575 3.5 3.51 3.5 0 0 0.001 0 0.001 0h-0c1.302 0 2.427-0.718 3.034-1.771l7.242 3.291c-2.016 2.712-5.241 4.481-8.881 4.481-6.094 0-11.052-4.936-11.052-11.001zM27.927 18.979c0 0.827-0.679 1.5-1.511 1.5-0.001 0-0.002 0-0.004 0-0.83 0-1.503-0.671-1.508-1.5v-0c0-0.827 0.678-1.5 1.511-1.5s1.511 0.673 1.511 1.5zM4.621 47.149c-0.206 0.203-0.489 0.329-0.802 0.329s-0.594-0.125-0.8-0.327l0 0c-0.204-0.202-0.331-0.482-0.331-0.792s0.127-0.59 0.331-0.792l0-0 1.804-1.797 1.596 1.589-1.797 1.791zM10.647 54.149c-0.206 0.204-0.489 0.33-0.803 0.33s-0.595-0.125-0.801-0.329l0 0c-0.204-0.202-0.33-0.482-0.33-0.792s0.126-0.59 0.33-0.792l0-0 1.806-1.798 1.597 1.589-1.799 1.791zM17.176 47.646l-0.004 0.002-3.309 3.3-1.597-1.589 3.307-3.293s0.002 0 0.003-0.002c0.075-0.075 0.122-0.165 0.169-0.253 0.012-0.026 0.037-0.049 0.049-0.075 0.031-0.078 0.036-0.16 0.047-0.242 0.007-0.046 0.026-0.089 0.026-0.136 0-0.067-0.023-0.131-0.037-0.198-0.012-0.060-0.012-0.122-0.035-0.179-0.037-0.094-0.103-0.177-0.172-0.258-0.019-0.023-0.025-0.051-0.047-0.071h-0.001l-0.002-0.004-3.013-3c-0.032-0.032-0.073-0.045-0.109-0.072-0.048-0.039-0.101-0.075-0.158-0.105l-0.005-0.003c-0.050-0.024-0.108-0.045-0.169-0.060l-0.006-0.001c-0.056-0.018-0.122-0.031-0.189-0.037l-0.004-0c-0.011-0-0.025-0.001-0.038-0.001-0.049 0-0.098 0.004-0.145 0.011l0.005-0.001c-0.073 0.007-0.139 0.020-0.203 0.039l0.007-0.002c-0.068 0.024-0.126 0.053-0.18 0.087l0.004-0.002c-0.037 0.021-0.080 0.028-0.114 0.053l-3.325 2.483-1.688-1.682 4.498-4.475 8.175 8.042-1.738 1.723zM29.961 34.489c-0.028-0.004-0.056 0.008-0.084 0.006-0.015-0.001-0.032-0.001-0.049-0.001-0.059 0-0.117 0.005-0.173 0.015l0.006-0.001c-0.131 0.020-0.248 0.065-0.351 0.13l0.004-0.002c-0.056 0.034-0.107 0.070-0.156 0.115-0.024 0.021-0.053 0.031-0.075 0.054l-8.81 9.649-8.115-7.982 5.312-5.284c0.181-0.181 0.292-0.431 0.292-0.707 0-0.553-0.448-1.001-1.001-1.001-0.001 0-0.002 0-0.003 0h0l-4.16 0.024 0.052-3.014 5.82 0.050c2.369 2.431 5.676 3.939 9.334 3.939 0.002 0 0.004 0 0.006 0h-0c0.82 0 1.62-0.084 2.399-0.23 0.075 0.060 0.149 0.121 0.244 0.159l4.517 1.8 0.286 1.421 0.335 1.659-5.631-0.801zM37.538 34.823l-0.588-2.921 2.712-2.025 1.776 2.356-3.9 2.59zM44.576 29.515l-1.571 1.472-1.746-2.318 1.559-1.194c0.291-0.225 0.657-0.315 1.017-0.268 0.363 0.051 0.683 0.24 0.9 0.532 0.407 0.547 0.337 1.311-0.159 1.777z"></path>
<path fill="#2e2f42" style="fill: var(--color1, #2e2f42)" d="M25.504 34.77l-4.018-4c-0.181-0.18-0.43-0.292-0.705-0.292s-0.525 0.111-0.705 0.292l-4.017 4c-0.181 0.182-0.293 0.432-0.293 0.709s0.112 0.528 0.293 0.709l-0-0 4.017 3.999c0.181 0.18 0.43 0.292 0.705 0.292s0.525-0.111 0.705-0.292l4.018-3.999c0.182-0.181 0.295-0.432 0.295-0.709s-0.113-0.528-0.295-0.709l-0-0zM20.781 38.068l-2.6-2.589 2.6-2.588 2.602 2.588-2.602 2.589zM32.183 9.508l-0.483 1.942c0.133 0.033 3.258 0.848 3.258 4.029h2.001c0-3.782-3.123-5.56-4.775-5.972zM36.958 17.479h-2v2.001h2v-2.001z"></path>
</symbol>

</defs>
</svg>
